<?xml version="1.0" standalone="no"?>
<!DOCTYPE svg PUBLIC "-//W3C//DTD SVG 1.1//EN" "http://www.w3.org/Graphics/SVG/1.1/DTD/svg11.dtd">
<svg xmlns="http://www.w3.org/2000/svg">
<defs >
<font id="BigShouldersDisplay" horiz-adv-x="549" ><font-face
    font-family="Big Shoulders Display Thin SemiBold"
    units-per-em="2000"
    panose-1="0 0 0 0 0 0 0 0 0 0"
    ascent="1968"
    descent="-426"
    alphabetic="0" />
<glyph unicode=" " horiz-adv-x="421" />
<glyph unicode="!" horiz-adv-x="432" d="M153 347L126 1199V1600H306V1199L280 347H153ZM90 0V204H343V0H90Z" />
<glyph unicode="&quot;" horiz-adv-x="605" d="M122 1150L90 1384V1600H241V1384L208 1150H122ZM397 1150L364 1384V1600H516V1384L483 1150H397Z" />
<glyph unicode="#" horiz-adv-x="1210" d="M124 0L237 434H60L97 579H268L381 985H203L239 1131H412L537 1600H709L584 1131H790L916 1600H1089L963 1131H1147L1112 985H932L820 579H1000L964 434H788L676 0H504L615 434H409L297 0H124ZM440 579H647L760 985H554L440
579Z" />
<glyph unicode="$" horiz-adv-x="749" d="M297 -193V-10Q183 6 132 75T75 283Q74 337 74 385T74 481T79 584H245Q241 499 241 416T245 254Q248 191 279 161T377 131Q441 131 469 161T503 254Q506 305 507 346T507 431T503 530Q500 596 481 642T406 703L287 734Q203
755 158 796T93 904T71 1064Q70 1124 70 1190T72 1320Q76 1458 127 1527T297 1610V1808H451V1610Q563 1596 614 1526T672 1318Q674 1266 673 1190T669 1034H501Q504 1112 505 1190T503 1347Q500 1410 469 1440T375 1470Q309 1470 280 1440T247 1347Q242 1277 242
1206T247 1064Q250 988 269 946T347 890L457 863Q544 843 591 800T657 690T679 530Q681 478 681 440T680 366T678 283Q672 144 620 74T451 -11V-193H297Z" />
<glyph unicode="%" horiz-adv-x="1086" d="M107 0L862 1600H987L231 0H107ZM779 -9Q694 -9 647 37T597 168Q595 230 595 295T594 425T597 555Q600 638 646 683T779 729Q865 729 911 684T963 555Q964 507 964 458T965 360T965 263T963 168Q958 84 912 38T779 -9ZM779
96Q805 96 819 110T835 147Q837 190 838 244T840 358T839 472T835 574Q834 595 820 610T779 625Q753 625 739 610T724 573Q721 513 720 436T720 282T724 147Q726 128 739 112T779 96ZM277 869Q192 869 145 915T95 1046Q93 1108 93 1173T92 1303T95 1433Q98 1516
144 1561T277 1607Q363 1607 409 1562T460 1433Q462 1385 462 1336T463 1238T463 1141T460 1046Q456 962 410 916T277 869ZM277 974Q303 974 316 988T333 1025Q335 1068 336 1122T337 1236T336 1350T333 1452Q332 1473 318 1488T277 1503Q251 1503 237 1488T222
1451Q219 1391 218 1314T218 1160T222 1025Q223 1006 237 990T277 974Z" />
<glyph unicode="&amp;" horiz-adv-x="1013" d="M419 -15Q257 -15 185 55T108 282Q106 359 106 411T110 505T118 593Q125 689 164 751T255 864Q206 982 177 1094T143 1307Q131 1452 196 1533T412 1615Q561 1615 627 1540T682 1316Q676 1192 627 1083T492 879Q483
867 473 855T453 830Q487 755 526 682T605 539Q603 601 599 670T586 807L729 809Q737 741 742 658T749 490T747 334Q795 264 837 206T914 103L799 -2Q774 30 748 64T694 136Q673 83 637 50T547 1T419 -15ZM423 131Q482 131 513 149T558 203T575 296Q511 391 451
493T336 701Q319 677 306 648T287 583Q281 543 278 504T275 412T277 278Q280 203 315 167T423 131ZM381 976Q432 1034 463 1091T510 1204T528 1316Q538 1403 512 1446T412 1490Q349 1490 323 1449T299 1332Q300 1255 322 1164T381 976Z" />
<glyph unicode="&apos;" horiz-adv-x="331" d="M122 1150L90 1384V1600H241V1384L208 1150H122Z" />
<glyph unicode="(" horiz-adv-x="495" d="M306 -400Q229 -273 174 -111T90 235T60 605Q60 779 87 958T168 1302T306 1600H435Q338 1370 288 1112T238 600Q238 431 260 257T327 -84T435 -400H306Z" />
<glyph unicode=")" horiz-adv-x="495" d="M189 -400H60Q125 -252 169 -85T235 257T257 600Q257 854 208 1112T60 1600H189Q273 1468 327 1303T408 958T435 605Q435 418 406 235T322 -110T189 -400Z" />
<glyph unicode="*" horiz-adv-x="512" d="M48 1320L193 1392L48 1465L89 1536L224 1447L215 1608H297L287 1447L423 1536L464 1465L319 1392L464 1320L423 1249L287 1338L297 1176H215L224 1336L89 1249L48 1320Z" />
<glyph unicode="+" horiz-adv-x="927" d="M396 396V693H99V828H396V1125H532V828H828V693H532V396H396Z" />
<glyph unicode="," horiz-adv-x="434" d="M129 -224L216 0H90V207H344V20L231 -224H129Z" />
<glyph unicode="-" horiz-adv-x="699" d="M60 674V830H639V674H60Z" />
<glyph unicode="." horiz-adv-x="432" d="M90 0V204H343V0H90Z" />
<glyph unicode="/" horiz-adv-x="695" d="M60 -400L460 1600H635L235 -400H60Z" />
<glyph unicode="0" horiz-adv-x="813" d="M406 -15Q261 -15 183 61T103 280Q100 448 99 624T99 976T103 1320Q105 1464 183 1539T406 1615Q549 1615 627 1540T708 1320Q711 1195 712 1064T714 800T713 536T708 280Q705 138 627 62T406 -15ZM406 131Q529 131 533
251Q538 446 540 638T540 1011T533 1349Q530 1470 406 1470Q280 1470 277 1349Q274 1206 273 1063T271 779T272 506T277 251Q280 131 406 131Z" />
<glyph unicode="1" horiz-adv-x="436" d="M162 0V1424H85L79 1492L197 1600H337V0H162Z" />
<glyph unicode="2" horiz-adv-x="783" d="M105 0Q104 37 104 64T103 113T102 161T102 221T103 305Q106 435 135 523T215 673T336 780L435 849Q497 897 515 953T536 1067Q540 1137 540 1207T536 1347Q533 1410 502 1440T401 1470Q337 1470 308 1440T276 1347Q274
1269 274 1191T277 1034H105Q103 1084 102 1134T101 1232T101 1318Q108 1477 178 1546T403 1615Q513 1615 578 1586T675 1491T711 1320Q712 1292 713 1259T714 1192T714 1125T712 1068Q708 973 683 906T612 787T496 687L389 615Q350 586 326 537T291 428T280 305V156H703V0H105Z"
/>
<glyph unicode="3" horiz-adv-x="807" d="M392 -15Q229 -15 156 54T77 283Q76 326 76 364T75 446T77 547H252V262Q252 195 285 163T387 131Q455 131 487 163T520 262Q523 348 523 441T520 617Q517 690 485 729T366 768L238 767L232 915L497 1444H83V1600H698L696
1453L423 921Q563 913 626 843T694 619Q696 566 697 519T698 430T697 353T694 283Q688 124 618 55T392 -15Z" />
<glyph unicode="4" horiz-adv-x="834" d="M443 0V468H60V611L361 1600H608V623H756V468H608V0H443ZM230 623H443L465 1039L484 1444H442L342 1039L230 623Z" />
<glyph unicode="5" horiz-adv-x="823" d="M415 -15Q252 -15 179 54T101 283Q98 355 98 418T101 547H276Q273 503 273 453T272 353T275 262Q280 195 311 163T410 131Q477 131 508 163T543 262Q550 380 550 489T545 715Q542 778 513 808T424 838Q381 838 351 823T304
779T286 712H119V1600H705V1444H294V894H328Q348 932 392 959T498 986Q607 986 660 917T720 718Q723 638 723 565T723 422T718 283Q709 177 678 111T583 15T415 -15Z" />
<glyph unicode="6" horiz-adv-x="799" d="M401 -16Q243 -16 174 53T103 282Q101 423 100 561T99 831T99 1086T103 1318Q108 1471 183 1542T399 1614Q546 1614 621 1541T703 1318Q703 1290 703 1248T703 1163T701 1090H528Q530 1132 530 1171T531 1253T528 1347Q526
1408 497 1438T401 1469Q340 1469 310 1440T277 1347Q274 1240 273 1124T271 880H309Q329 919 378 945T488 971Q612 971 660 909T711 704Q714 627 714 557T714 420T711 282Q704 122 633 53T401 -16ZM402 129Q469 129 502 159T536 253Q538 314 538 371T539 484T539
592T537 700Q536 764 506 794T416 824Q353 824 314 793T271 704Q272 600 273 488T277 253Q279 190 309 160T402 129Z" />
<glyph unicode="7" horiz-adv-x="740" d="M142 0L504 1444H59V1600H680V1445L323 0H142Z" />
<glyph unicode="8" horiz-adv-x="798" d="M398 -15Q244 -15 174 54T96 283Q94 323 94 367T94 466T98 587Q105 678 136 730T233 809V842Q182 861 150 904T108 1019Q105 1072 103 1125T100 1227T101 1318Q108 1477 177 1546T398 1615Q551 1615 619 1546T696 1318Q698
1276 698 1228T695 1126T688 1019Q679 947 647 904T565 843V809Q624 780 657 729T699 587Q704 486 704 415T701 283Q694 124 624 55T398 -15ZM398 131Q465 131 495 163T526 262Q528 322 528 377T529 489T526 604Q525 674 495 707T398 741Q333 741 303 708T270 604Q269
515 269 433T270 262Q272 195 302 163T398 131ZM398 908Q464 908 495 941T526 1044Q528 1122 528 1192T526 1338Q525 1406 495 1438T398 1470Q333 1470 303 1438T270 1338Q270 1300 270 1264T269 1191T269 1119T270 1044Q272 974 302 941T398 908Z" />
<glyph unicode="9" horiz-adv-x="798" d="M402 -16Q245 -16 175 53T104 281Q104 309 104 351T103 435T105 509H279Q278 446 278 384T279 252Q281 191 307 160T400 129Q462 129 489 159T519 252Q522 352 524 468T527 709H495Q475 670 431 644T324 617Q256 617 203
645T118 734T85 894Q84 938 84 992T84 1104T84 1217T86 1316Q90 1476 163 1545T395 1614Q554 1614 622 1545T694 1316Q697 1136 698 962T698 619T694 281Q691 122 622 53T402 -16ZM386 765Q447 765 484 793T527 874Q526 991 524 1109T519 1345Q518 1409 487 1439T394
1469Q328 1469 295 1439T260 1345Q260 1299 260 1241T259 1120T259 997T259 888Q261 825 294 795T386 765Z" />
<glyph unicode=":" horiz-adv-x="432" d="M90 600V804H343V600H90ZM90 0V204H343V0H90Z" />
<glyph unicode=";" horiz-adv-x="434" d="M129 -224L216 0H90V207H344V20L231 -224H129ZM90 603V807H343V603H90Z" />
<glyph unicode="&lt;" horiz-adv-x="943" d="M844 531L99 652V880L844 1005V860L463 807L232 789V744L464 726L844 676V531Z" />
<glyph unicode="=" horiz-adv-x="887" d="M99 832V967H788V832H99ZM99 556V691H788V556H99Z" />
<glyph unicode="&gt;" horiz-adv-x="943" d="M99 531V676L479 726L711 744V789L481 807L99 860V1005L844 880V652L99 531Z" />
<glyph unicode="?" horiz-adv-x="726" d="M267 349L261 583Q259 646 269 690T306 767T384 826L423 844Q451 858 463 882T480 947T484 1043V1349Q484 1412 454 1441T360 1471Q300 1471 272 1442T240 1349Q236 1273 236 1194T238 1035H69Q68 1081 68 1129T67 1225T68
1320Q74 1479 141 1547T358 1616Q517 1616 587 1548T658 1320Q658 1232 658 1181T659 1100T659 1043Q657 954 646 897T614 806T565 753T503 717L462 697Q423 678 415 646T405 582L398 349H267ZM205 0V204H458V0H205Z" />
<glyph unicode="@" horiz-adv-x="1097" d="M548 -258Q395 -258 298 -225T154 -120T105 71Q103 208 102 334T100 584T100 837T105 1112Q107 1235 154 1310T298 1419T548 1454Q700 1454 797 1419T942 1309T993 1111Q995 990 995 888T996 695T995 518T993 343Q991
265 942 228T802 190Q713 190 672 214T619 281H589Q569 237 544 213T470 188Q405 188 373 231T335 378Q332 449 331 529T331 687T335 834Q340 936 374 979T473 1023Q518 1023 542 1002T588 933H608V1012H747L748 346Q748 314 761 299T802 284Q827 284 839 299T853
347Q855 424 856 509T858 689T859 891T855 1119Q852 1233 780 1283T548 1333Q391 1333 320 1284T245 1119Q241 980 240 849T238 589T239 330T245 64Q248 -44 319 -91T548 -138Q705 -138 776 -92T849 64Q850 82 850 94T848 132H985Q986 103 986 91T986 64Q985 -52
939 -123T797 -226T548 -258ZM526 291Q552 291 576 311T610 366L608 848Q598 882 574 901T526 920Q500 920 488 902T473 846Q470 768 469 688T468 527T474 366Q476 324 488 308T526 291Z" />
<glyph unicode="A" horiz-adv-x="747" d="M38 0L221 1600H526L709 0H530L490 432H256L217 0H38ZM273 588H474L441 938L402 1444H346L306 938L273 588Z" />
<glyph unicode="B" horiz-adv-x="756" d="M99 0V1600H370Q529 1600 601 1533T675 1308Q677 1226 677 1164T675 1042Q670 953 639 901T540 826V786Q609 763 641 711T677 567Q679 493 679 430T677 292Q671 136 600 68T371 0H99ZM274 156H371Q436 156 468 190T502
294Q504 364 504 427T502 560Q501 652 469 691T365 730H274V156ZM274 886H369Q435 886 467 925T501 1046Q503 1118 503 1182T501 1317Q500 1382 468 1413T370 1444H274V886Z" />
<glyph unicode="C" horiz-adv-x="770" d="M390 -16Q230 -16 162 53T90 282Q88 408 87 538T86 799T87 1061T90 1318Q93 1462 163 1538T389 1614Q545 1614 615 1546T690 1318Q691 1281 691 1228T691 1123T689 1033H514Q515 1081 516 1135T517 1244T516 1347Q515
1411 485 1440T389 1469Q326 1469 297 1440T265 1347Q262 1209 261 1073T259 800T260 527T265 253Q267 188 297 159T390 129Q459 129 491 158T524 253Q525 303 525 360T525 475T523 583H697Q700 507 700 432T698 282Q694 122 623 53T390 -16Z" />
<glyph unicode="D" horiz-adv-x="788" d="M99 0V1600H393Q553 1600 624 1530T698 1298Q701 1120 702 960T702 641T698 303Q695 141 624 71T391 0H99ZM274 156H391Q459 156 490 187T523 285Q526 414 527 543T528 801T527 1059T523 1317Q522 1382 491 1413T393 1444H274V156Z"
/>
<glyph unicode="E" horiz-adv-x="656" d="M99 0V1600H611V1444H274V886H591V730H274V156H611V0H99Z" />
<glyph unicode="F" horiz-adv-x="645" d="M99 0V1600H611V1444H274V886H591V730H274V0H99Z" />
<glyph unicode="G" horiz-adv-x="770" d="M394 -15Q286 -15 221 15T125 111T91 283Q88 407 87 536T86 797T87 1057T91 1309Q95 1420 126 1487T222 1585T392 1615Q544 1615 613 1546T691 1318Q694 1249 694 1177T691 1034H516Q519 1109 519 1191T516 1347Q513 1410
483 1440T392 1470Q329 1470 299 1440T266 1347Q262 1213 260 1076T258 801T260 526T266 254Q268 191 298 161T394 131Q458 131 491 161T528 254Q529 300 529 350T530 451T528 547H400V701H698Q701 621 701 516T697 283Q691 124 621 55T394 -15Z" />
<glyph unicode="H" horiz-adv-x="792" d="M99 0V1600H274V886H518V1600H693V0H518V730H274V0H99Z" />
<glyph unicode="I" horiz-adv-x="373" d="M99 0V1600H274V0H99Z" />
<glyph unicode="J" horiz-adv-x="720" d="M344 -15Q238 -15 175 15T84 111T52 283Q51 359 51 433T52 584H218Q216 534 216 477T215 362T218 254Q220 191 249 161T344 131Q408 131 436 161T464 254V1600H638V283Q638 124 572 55T344 -15Z" />
<glyph unicode="K" horiz-adv-x="767" d="M99 0V1600H284L282 1219L255 823H293L412 1246L532 1600H723L478 899L744 0H565L364 696L277 479V0H99Z" />
<glyph unicode="L" horiz-adv-x="635" d="M99 0V1600H274V156H612V0H99Z" />
<glyph unicode="M" horiz-adv-x="1164" d="M99 0V1600H402L507 958L562 161H603L656 958L763 1600H1065V0H890V473L922 1444H875L774 463L689 5H475L391 463L290 1444H244L274 473V0H99Z" />
<glyph unicode="N" horiz-adv-x="876" d="M99 0V1600H378L474 1093L604 156H651L619 1004L607 1600H777V0H487L382 561L276 1445H226L255 602L268 0H99Z" />
<glyph unicode="O" horiz-adv-x="788" d="M394 -15Q235 -15 165 53T91 280Q89 412 88 541T86 800T87 1058T91 1320Q94 1479 164 1547T394 1615Q554 1615 623 1547T697 1320Q699 1188 701 1058T703 799T701 541T697 280Q693 122 624 54T394 -15ZM394 131Q461 131
491 159T522 251Q526 387 528 525T530 803T528 1080T522 1349Q521 1413 491 1441T394 1470Q329 1470 299 1442T266 1349Q262 1217 260 1080T258 804T260 526T266 251Q268 187 298 159T394 131Z" />
<glyph unicode="P" horiz-adv-x="738" d="M99 0V1600H379Q536 1600 607 1533T684 1308Q688 1187 688 1090T684 888Q678 732 607 664T377 596H274V0H99ZM274 752H377Q444 752 475 783T509 879Q512 951 513 1024T513 1171T509 1317Q506 1382 476 1413T379 1444H274V752Z" />
<glyph unicode="Q" horiz-adv-x="788" d="M671 -203Q547 -212 481 -168T394 -15Q234 -15 164 53T91 280Q89 412 88 541T86 800T87 1058T91 1320Q94 1479 164 1547T394 1615Q554 1615 623 1547T697 1320Q699 1188 701 1058T703 799T701 541T697 280Q695 173 662
110T556 17Q565 -29 593 -47T671 -61V-203ZM394 131Q461 131 491 159T522 251Q526 387 528 525T530 803T528 1080T522 1349Q521 1413 491 1441T394 1470Q329 1470 299 1442T266 1349Q262 1217 260 1080T258 804T260 526T266 251Q268 187 298 159T394 131Z" />
<glyph unicode="R" horiz-adv-x="761" d="M99 0V1600H379Q536 1600 607 1533T684 1308Q687 1227 688 1157T688 1021T684 885Q680 780 647 716T545 623L713 0H527L379 593H274V0H99ZM274 749H377Q444 749 475 780T509 877Q512 948 513 1022T513 1171T509 1317Q506
1382 476 1413T379 1444H274V749Z" />
<glyph unicode="S" horiz-adv-x="749" d="M377 -15Q219 -15 151 54T75 283Q74 337 74 385T74 481T79 584H245Q241 499 241 416T245 254Q248 191 279 161T377 131Q441 131 469 161T503 254Q506 305 507 346T507 431T503 530Q500 596 481 642T406 703L287 734Q203
755 158 796T93 904T71 1064Q70 1124 70 1190T72 1320Q76 1425 106 1490T202 1585T377 1615Q529 1615 597 1546T672 1318Q674 1266 673 1190T669 1034H501Q504 1112 505 1190T503 1347Q500 1410 469 1440T375 1470Q309 1470 280 1440T247 1347Q242 1277 242 1206T247
1064Q250 988 269 946T347 890L457 863Q544 843 591 800T657 690T679 530Q681 478 681 440T680 366T678 283Q672 124 603 55T377 -15Z" />
<glyph unicode="T" horiz-adv-x="630" d="M228 0V1444H11V1600H619V1444H402V0H228Z" />
<glyph unicode="U" horiz-adv-x="772" d="M386 -15Q226 -15 157 53T85 280Q81 609 81 940T85 1600H260Q257 1381 256 1153T256 698T259 251Q259 190 291 161T386 131Q451 131 481 160T512 251Q514 470 515 697T517 1153T512 1600H687Q691 1271 691 940T687 280Q685
122 616 54T386 -15Z" />
<glyph unicode="V" horiz-adv-x="763" d="M228 0L43 1600H224L319 731L354 156H409L444 731L538 1600H721L535 0H228Z" />
<glyph unicode="W" horiz-adv-x="1197" d="M177 0L57 1600H233L272 966L312 156H359L390 966L465 1590H733L810 966L837 156H884L925 966L966 1600H1140L1019 0H716L663 505L624 1439H573L533 505L480 0H177Z" />
<glyph unicode="X" horiz-adv-x="730" d="M40 0L238 820L48 1600H219L299 1223L346 890H386L433 1223L511 1600H681L498 814L689 0H519L435 395L386 734H346L297 395L211 0H40Z" />
<glyph unicode="Y" horiz-adv-x="722" d="M273 0V410V412L34 1600H213L292 1164L341 703H381L428 1164L507 1600H687L448 410V408V0H273Z" />
<glyph unicode="Z" horiz-adv-x="657" d="M33 0V144L434 1444H56V1600H622V1453L210 156H587V0H33Z" />
<glyph unicode="[" horiz-adv-x="551" d="M99 -400V1600H491V1508H274V-308H491V-400H99Z" />
<glyph unicode="\" horiz-adv-x="695" d="M635 -400H460L60 1600H235L635 -400Z" />
<glyph unicode="]" horiz-adv-x="551" d="M462 -400H70V-308H288V1508H70V1600H462V-400Z" />
<glyph unicode="^" horiz-adv-x="742" d="M99 916L311 1379H431L642 916H523L372 1253L219 916H99Z" />
<glyph unicode="_" horiz-adv-x="1312" d="M60 -120V-80H1252V-120H60Z" />
<glyph unicode="`" horiz-adv-x="467" d="M248 1280L100 1519H223L366 1280H248Z" />
<glyph unicode="a" horiz-adv-x="759" d="M290 -13Q184 -13 134 45T73 228Q72 252 72 278T72 327Q77 400 99 456T169 559T301 647Q346 671 393 691T489 730V960Q489 1022 465 1051T378 1080Q323 1080 298 1056T269 965Q268 944 268 910T267 840T269 778H99Q98
810 97 859T97 948Q101 1042 130 1101T220 1187T383 1215Q489 1215 550 1185T636 1091T662 923L661 0H487V113H461Q436 51 398 19T290 -13ZM354 117Q402 117 435 145T488 224V600Q453 588 418 571T341 525Q285 488 266 439T244 327Q244 308 244 286T245 241Q250
181 278 149T354 117Z" />
<glyph unicode="b" horiz-adv-x="795" d="M490 -15Q415 -15 375 17T301 113H277V0H103V1600H277V1087H312Q345 1152 385 1183T501 1215Q602 1215 652 1155T707 953Q709 870 710 779T712 594T711 413T707 248Q702 107 647 46T490 -15ZM433 117Q485 117 508 145T533
234Q536 316 537 405T539 588T538 777T533 966Q531 1028 508 1055T433 1083Q381 1083 339 1056T277 970V230Q296 173 338 145T433 117Z" />
<glyph unicode="c" horiz-adv-x="740" d="M495 778Q497 807 497 842T498 910T496 965Q495 1031 468 1055T380 1080Q318 1080 291 1056T262 965Q260 867 259 778T258 602T259 426T262 240Q264 172 291 146T382 120Q441 120 468 146T496 240Q497 275 497 321T495
425H665Q668 389 668 342T667 256Q662 111 596 48T382 -15Q230 -15 162 48T88 256Q86 326 85 414T84 596T85 780T88 941Q96 1089 163 1152T380 1215Q530 1215 596 1153T667 947Q669 910 669 863T665 778H495Z" />
<glyph unicode="d" horiz-adv-x="795" d="M298 -15Q196 -15 145 46T88 248Q86 324 85 412T84 594T85 778T88 953Q93 1094 146 1154T300 1215Q376 1215 416 1184T489 1087H518V1600H692V0H518V113H488Q456 51 415 18T298 -15ZM362 117Q415 117 456 145T518 230V970Q498
1028 457 1055T363 1083Q311 1083 288 1056T262 966Q258 842 257 715T257 465T262 234Q265 173 287 145T362 117Z" />
<glyph unicode="e" horiz-adv-x="744" d="M384 -15Q231 -15 163 48T88 256Q86 326 85 413T84 596T85 780T88 941Q96 1089 164 1152T382 1215Q528 1215 594 1153T667 948Q668 919 669 860T670 725T665 567H259Q259 489 260 409T263 240Q265 172 292 146T382 120Q442
120 467 146T496 240Q498 273 498 320T496 426H665Q668 390 668 342T667 256Q660 111 597 48T384 -15ZM259 696H498Q498 752 498 806T498 903T496 965Q493 1027 467 1053T382 1080Q319 1080 292 1054T263 965Q262 892 261 826T259 696Z" />
<glyph unicode="f" horiz-adv-x="527" d="M130 0V1064H27V1200H130V1346Q129 1491 198 1554T418 1617Q447 1617 481 1613T545 1604V1473Q516 1476 485 1477T420 1478Q359 1478 331 1451T304 1359V1200H509V1064H304V0H130Z" />
<glyph unicode="g" horiz-adv-x="796" d="M378 -345Q238 -345 161 -303T72 -172Q71 -163 70 -149T70 -120Q74 -66 109 -33T195 8V38Q148 51 122 77T92 144Q91 154 91 164T92 185Q95 227 126 255T203 289V319Q142 349 112 408T77 561Q76 618 75 662T74 748T75 836T77
941Q82 1037 112 1097T206 1186T374 1215Q480 1215 542 1186T634 1094H665Q670 1148 702 1174T794 1200V1064H762Q721 1064 698 1033T673 936L671 837Q672 800 672 768T672 704T672 638T669 561Q664 463 634 403T540 315T373 288Q293 289 260 272T226 214V204Q227
180 239 166T284 144T379 135Q536 131 615 84T706 -72Q707 -87 707 -102T706 -136Q700 -213 659 -258T547 -324T378 -345ZM382 -217Q433 -217 471 -209T530 -180T557 -125Q559 -112 559 -101T556 -78Q551 -42 530 -24T471 1T382 10Q306 13 265 -6T218 -79Q216 -90
216 -102T217 -125Q221 -162 241 -182T296 -209T382 -217ZM373 423Q441 423 467 450T497 540Q499 585 500 638T502 747T501 858T497 962Q494 1027 467 1053T373 1080Q307 1080 279 1053T248 960Q246 903 245 848T244 739T245 637T248 543Q251 481 278 452T373 423Z"
/>
<glyph unicode="h" horiz-adv-x="807" d="M103 0V1600H277V1087H312Q345 1152 385 1183T501 1215Q602 1215 655 1155T709 953V0H535V966Q535 1028 510 1055T433 1083Q381 1083 339 1056T277 970V0H103Z" />
<glyph unicode="i" horiz-adv-x="380" d="M74 1424V1600H306V1424H74ZM103 0V1200H277V0H103Z" />
<glyph unicode="j" horiz-adv-x="382" d="M75 1424V1600H307V1424H75ZM-12 -414Q-40 -414 -75 -410T-139 -402V-268Q-114 -271 -79 -272T-14 -274Q48 -274 76 -247T104 -155V1200H278V-143Q278 -287 209 -350T-12 -414Z" />
<glyph unicode="k" horiz-adv-x="708" d="M103 0V1600H267V1201L248 680H282L364 912L478 1200H660L445 715L705 0H524L337 532L270 399V0H103Z" />
<glyph unicode="l" horiz-adv-x="380" d="M103 0V1600H277V0H103Z" />
<glyph unicode="m" horiz-adv-x="1232" d="M103 0V1200H277V1087H310Q343 1152 383 1183T501 1215Q576 1215 624 1183T692 1077H724Q757 1141 803 1178T926 1215Q1028 1215 1081 1155T1134 953V0H960V966Q959 1028 935 1055T859 1083Q808 1083 769 1053T709 967V0H534V966Q533
1028 509 1055T433 1083Q381 1083 339 1056T277 970V0H103Z" />
<glyph unicode="n" horiz-adv-x="807" d="M103 0V1200H277V1087H312Q343 1149 385 1182T501 1215Q602 1215 655 1155T709 953V0H535V966Q534 1028 510 1055T433 1083Q384 1083 340 1054T277 970V0H103Z" />
<glyph unicode="o" horiz-adv-x="773" d="M387 -15Q281 -15 217 14T124 109T89 280Q87 349 86 430T84 598T85 766T89 920Q94 1026 123 1091T216 1185T387 1215Q495 1215 558 1185T650 1091T684 920Q686 851 687 769T689 602T688 434T684 280Q679 175 650 110T558
15T387 -15ZM387 120Q452 120 480 147T509 240Q512 338 514 426T516 600T514 774T509 960Q508 1025 481 1052T387 1080Q322 1080 294 1053T263 960Q261 863 260 775T258 600T259 426T263 240Q265 175 294 148T387 120Z" />
<glyph unicode="p" horiz-adv-x="795" d="M103 -400V1200H277V1087H307Q339 1152 379 1183T495 1215Q598 1215 650 1155T707 953Q709 890 710 800T712 610T711 416T707 248Q702 107 646 46T487 -15Q425 -15 384 14T307 113H277V-400H103ZM423 117Q475 117 503
145T533 234Q536 331 537 426T539 613T537 794T533 966Q531 1028 508 1055T433 1083Q381 1083 339 1056T277 970V230Q298 169 332 143T423 117Z" />
<glyph unicode="q" horiz-adv-x="795" d="M518 -400V113H491Q456 44 415 15T310 -15Q209 -15 151 46T88 248Q86 310 85 399T84 588T85 783T88 953Q93 1094 145 1154T300 1215Q377 1215 416 1184T489 1087H518V1200H692V-400H518ZM372 117Q429 117 463 143T518
230V970Q498 1028 457 1055T362 1083Q311 1083 288 1056T262 966Q258 836 257 710T256 464T262 234Q265 173 293 145T372 117Z" />
<glyph unicode="r" horiz-adv-x="546" d="M103 0V1200H277V1077H311Q326 1149 364 1176T465 1204Q484 1204 503 1203T534 1201V1064H467Q376 1064 334 1032T277 933V0H103Z" />
<glyph unicode="s" horiz-adv-x="701" d="M345 -15Q200 -15 140 48T74 256Q73 294 73 341T76 425H230Q228 368 228 322T229 240Q232 172 259 146T345 120Q412 120 440 146T470 240Q470 268 470 286T471 321T471 363Q470 427 454 461T390 512L284 545Q210 569 163
604T94 697T70 842Q69 868 70 891T71 940Q73 1088 135 1151T354 1215Q501 1215 560 1153T625 947Q626 910 626 863T623 778H463Q464 807 464 842T465 910T463 965Q462 1031 439 1055T354 1080Q292 1080 268 1056T242 965Q241 934 240 913T240 855Q241 790 254 749T323
689L421 661Q528 632 581 567T634 372Q634 344 634 312T632 252Q629 110 565 48T345 -15Z" />
<glyph unicode="t" horiz-adv-x="532" d="M423 -15Q261 -15 197 48T132 256V1064H42V1200H134V1540H309V1200H494V1064H306V238Q306 171 327 145T425 119Q452 119 471 120T514 124V-5Q494 -10 471 -12T423 -15Z" />
<glyph unicode="u" horiz-adv-x="802" d="M307 -15Q206 -15 151 46T95 248V1200H269V234Q269 173 293 145T369 117Q418 117 462 147T525 230V1200H699V0H525V113H496Q463 47 417 16T307 -15Z" />
<glyph unicode="v" horiz-adv-x="683" d="M185 0L32 1200H210L272 595L309 133H370L407 595L473 1200H652L493 0H185Z" />
<glyph unicode="w" horiz-adv-x="1164" d="M162 0L34 1200H207L256 595L286 133H348L371 595L425 1195H736L787 595L810 133H873L904 595L954 1200H1130L997 0H681L647 462L614 1062H545L511 462L478 0H162Z" />
<glyph unicode="x" horiz-adv-x="650" d="M24 0L192 621L28 1200H197L260 943L303 693H346L390 943L454 1200H623L457 617L627 0H458L385 312L346 562H304L266 312L193 0H24Z" />
<glyph unicode="y" horiz-adv-x="707" d="M183 -410Q155 -410 118 -407T51 -399V-266Q76 -268 114 -270T182 -272Q257 -272 284 -246T321 -152L340 0H218L44 1200H222L281 626L337 134H394L441 626L497 1200H674L495 -139Q481 -236 449 -295T353 -382T183 -410Z" />
<glyph unicode="z" horiz-adv-x="621" d="M37 0V113L396 1067L45 1065V1198L585 1200V1084L221 133H575V0H37Z" />
<glyph unicode="{" horiz-adv-x="626" d="M566 -402Q461 -402 379 -368T248 -261T199 -74Q199 -49 200 -1T204 105T208 219T212 317T214 375Q214 456 187 482T113 508H60V688H113Q160 689 187 715T214 822Q214 837 213 879T209 978T205 1092T202 1198T200 1272Q200
1387 248 1459T378 1566T566 1600V1506Q511 1506 467 1476T398 1393T372 1272Q372 1250 373 1209T376 1119T380 1020T383 930T384 870Q384 769 347 701T235 616V582Q309 567 346 498T384 328Q384 308 383 268T380 179T376 80T373 -11T372 -74Q372 -141 397 -194T467
-277T566 -308V-402Z" />
<glyph unicode="|" horiz-adv-x="373" d="M99 1820H274V-240H99V1820Z" />
<glyph unicode="}" horiz-adv-x="606" d="M41 -402V-308Q96 -308 140 -278T209 -194T235 -74Q235 -52 234 -11T230 79T226 178T223 268T222 328Q222 429 259 498T372 582V616Q297 632 260 700T222 870Q222 890 223 930T226 1019T230 1118T233 1209T235 1272Q235
1340 210 1392T140 1475T41 1506V1600Q145 1600 227 1566T358 1460T406 1272Q406 1247 405 1199T402 1092T398 978T394 880T392 822Q392 741 419 715T493 688H546V508H493Q446 508 419 482T392 375Q392 359 393 317T397 219T402 105T405 -1T407 -74Q407 -188 359
-261T228 -368T41 -402Z" />
<glyph unicode="~" horiz-adv-x="954" d="M622 638Q571 641 534 659T466 702T405 746T335 770Q280 777 244 745T201 652H99Q110 787 177 847T342 899Q398 896 436 877T503 833T561 791T627 769Q682 765 716 795T753 879H854Q847 753 785 693T622 638Z" />
<glyph unicode="&#xa0;" horiz-adv-x="421" />
<glyph unicode="&#xa1;" horiz-adv-x="432" d="M153 853H280L306 1V-400H126V1L153 853ZM90 1200H343V996H90V1200Z" />
<glyph unicode="&#xa2;" horiz-adv-x="740" d="M300 0V191Q191 206 142 269T88 456Q86 526 85 614T84 796T85 980T88 1141Q93 1267 142 1330T300 1409V1600H453V1410Q564 1397 614 1334T667 1147Q668 1110 668 1063T665 978H495Q497 1007 497 1042T497 1110T496
1165Q494 1231 467 1255T380 1280Q318 1280 291 1256T262 1165Q260 1067 259 978T258 802T259 626T262 440Q264 372 291 346T382 320Q441 320 467 346T496 440Q497 475 497 521T495 625H665Q667 589 668 542T667 456Q662 331 612 267T453 189V0H300Z" />
<glyph unicode="&#xa3;" horiz-adv-x="843" d="M130 0V150Q167 175 189 235T221 382T231 566Q231 625 227 674T215 768H103V861H193Q178 927 163 993T138 1137T128 1318Q129 1462 200 1538T426 1614Q582 1614 652 1546T728 1318Q729 1281 729 1228T728 1123T726
1033H552Q553 1069 553 1109T554 1190T554 1271T553 1347Q552 1411 522 1440T426 1469Q363 1469 334 1440T302 1347Q302 1254 314 1174T344 1019T376 861H553V768H388Q394 728 397 685T401 594Q401 443 373 344T298 190V156H744V0H130Z" />
<glyph unicode="&#xa4;" horiz-adv-x="1017" d="M182 57L103 122L242 291Q224 324 215 368T203 469Q201 539 200 620T198 788T199 956T203 1110Q206 1169 216 1215T246 1296L104 1466L180 1531L317 1367Q383 1405 501 1405Q631 1405 697 1360L841 1529L917 1461L761
1283Q779 1251 787 1208T798 1110Q801 1041 802 959T803 792T802 624T798 469Q796 416 788 374T762 297L906 123L829 57L696 218Q632 175 501 175Q377 175 311 216L182 57ZM501 310Q566 310 594 337T624 430Q626 527 628 615T630 790T628 964T624 1149Q622 1215
595 1242T501 1270Q436 1270 408 1243T378 1149Q375 1053 374 965T372 790T373 615T378 430Q380 365 408 338T501 310Z" />
<glyph unicode="&#xa5;" horiz-adv-x="722" d="M274 0V176H105V249H274V302H105V375H274V407V409L34 1600H214L293 1164L341 703H381L428 1164L508 1600H687L448 409V407V375H618V302H448V249H618V176H448V0H274Z" />
<glyph unicode="&#xa6;" horiz-adv-x="373" d="M99 1820H274V1016H99V1820ZM99 536H274V-240H99V536Z" />
<glyph unicode="&#xa7;" horiz-adv-x="768" d="M377 -415Q280 -415 222 -392T137 -313T105 -161Q104 -135 104 -101T105 -33T107 25H263Q261 -13 261 -47T260 -109T261 -161Q264 -228 290 -254T377 -280Q444 -280 472 -254T502 -161Q503 -121 503 -77T503 4Q501
68 488 105T423 153L331 177Q225 203 166 258T103 423Q100 504 100 574T103 734Q105 813 137 863T216 936V972Q164 994 136 1036T101 1172Q100 1213 101 1266T103 1355Q111 1453 137 1507T222 1583T387 1605Q533 1605 592 1543T657 1337Q658 1299 658 1255T655
1157H495Q496 1192 497 1229T498 1300T496 1355Q493 1420 470 1440T387 1460Q324 1460 301 1440T274 1355Q272 1323 271 1266T271 1172Q274 1107 286 1070T355 1020L452 997Q550 974 604 908T665 728Q670 636 669 569T664 423Q660 353 631 308T553 240V210Q609
186 637 132T667 -1Q668 -38 667 -82T664 -161Q658 -255 630 -310T542 -390T377 -415ZM390 308Q455 308 478 343T507 428Q510 472 511 526T511 635T507 734Q502 782 480 816T390 851Q325 851 298 817T268 734Q264 668 264 581T268 428Q274 379 299 344T390 308Z"
/>
<glyph unicode="&#xa8;" horiz-adv-x="592" d="M349 1310V1442H480V1310H349ZM133 1310V1442H264V1310H133Z" />
<glyph unicode="&#xa9;" horiz-adv-x="1244" d="M623 -10Q447 -10 331 56T157 258T99 600Q99 807 156 942T330 1143T623 1210Q886 1210 1015 1060T1145 600Q1145 394 1088 259T915 57T623 -10ZM623 82Q836 82 939 208T1043 600Q1043 864 940 991T623 1118Q409
1118 305 992T201 600Q201 335 305 209T623 82ZM627 190Q517 190 469 236T414 390Q413 429 413 482T412 592T412 703T414 801Q419 910 468 957T625 1004Q736 1004 783 958T835 805Q836 784 836 767T833 730H721Q723 752 723 774T722 815Q722 872 700 892T625 913Q575
913 553 893T529 815Q526 733 526 664T527 527T529 379Q530 323 553 302T627 281Q677 281 698 302T722 379Q723 400 723 418T721 471H833Q835 449 835 431T835 390Q829 284 783 237T627 190Z" />
<glyph unicode="&#xaa;" horiz-adv-x="673" d="M274 754Q190 754 152 794T101 929Q100 947 100 962T100 997Q106 1077 145 1128T284 1222Q319 1238 357 1251T437 1278Q436 1317 436 1355T433 1428Q432 1468 415 1488T345 1508Q303 1508 282 1492T256 1430Q255
1421 255 1395T256 1342T258 1303H122Q121 1314 120 1338T119 1385T120 1418Q125 1519 174 1567T349 1615Q434 1615 482 1593T550 1523T572 1398Q573 1366 573 1305T574 1169T574 1016T573 873T572 765H432Q432 785 432 805T434 846H412Q391 802 361 778T274 754ZM326
857Q362 857 391 875T436 932Q437 993 437 1054T437 1175Q408 1168 378 1157T315 1126Q271 1102 256 1070T237 997Q237 990 237 971T239 940Q241 899 265 878T326 857Z" />
<glyph unicode="&#xab;" horiz-adv-x="642" d="M546 845L276 536V710L546 1019V845ZM546 228L276 536V710L546 402V228ZM533 845L263 536V710L533 1019V845ZM533 228L263 536V710L533 402V228Z" />
<glyph unicode="&#xac;" horiz-adv-x="887" d="M653 510V832H99V967H788V510H653Z" />
<glyph unicode="&#xad;" horiz-adv-x="699" d="M60 674V830H639V674H60Z" />
<glyph unicode="&#xae;" horiz-adv-x="822" d="M414 1020Q257 1020 178 1109T99 1376Q99 1558 178 1646T414 1735Q568 1735 645 1647T723 1376Q723 1198 646 1109T414 1020ZM414 1078Q544 1078 604 1149T665 1376Q665 1533 605 1605T414 1677Q281 1677 220 1606T158
1376Q158 1221 220 1150T414 1078ZM321 1176V1600H418Q469 1600 494 1580T521 1507Q522 1491 522 1478T521 1448Q520 1420 507 1403T468 1379V1368Q494 1362 506 1346T520 1299Q521 1281 521 1263T522 1224T521 1176H456Q456 1212 456 1246T454 1307Q452 1347 418
1347H387V1176H321ZM387 1406H418Q435 1406 444 1414T454 1442Q456 1458 456 1475T454 1511Q454 1542 418 1542H387V1406Z" />
<glyph unicode="&#xaf;" horiz-adv-x="778" d="M136 1363H634V1273H136V1363Z" />
<glyph unicode="&#xb0;" horiz-adv-x="637" d="M319 1182Q259 1182 209 1212T129 1291T99 1400Q99 1460 129 1510T209 1590T319 1620Q378 1620 427 1590T507 1510T537 1400Q537 1341 507 1292T428 1212T319 1182ZM319 1263Q376 1263 416 1303T457 1400Q457 1458
417 1499T319 1540Q262 1540 221 1499T180 1400Q180 1344 221 1304T319 1263Z" />
<glyph unicode="&#xb1;" horiz-adv-x="927" d="M396 547V693H99V828H396V1005H532V828H828V693H532V547H396ZM99 341V454H828V341H99Z" />
<glyph unicode="&#xb2;" horiz-adv-x="486" d="M65 879Q64 922 64 953T65 1026Q66 1107 103 1155T198 1237L255 1270Q282 1289 290 1308T301 1356Q303 1382 303 1406T301 1455Q300 1476 288 1490T245 1504Q194 1504 192 1456Q190 1423 191 1389T193 1330H67Q66
1357 65 1385T65 1440Q68 1525 115 1566T245 1608Q337 1608 382 1566T429 1440Q429 1427 429 1415T430 1388T430 1356Q429 1286 397 1246T305 1172L237 1137Q220 1123 209 1098T197 1039V992H418V879H65Z" />
<glyph unicode="&#xb3;" horiz-adv-x="493" d="M249 871Q158 871 109 910T58 1031Q58 1046 58 1058T57 1084T59 1120H186Q185 1094 185 1072T185 1031Q186 1006 200 991T245 976Q275 976 289 989T304 1028Q305 1057 305 1086T304 1147Q304 1177 289 1191T240 1206H157L153
1301L271 1487H68V1600H427L425 1491L294 1306Q358 1298 395 1261T433 1149Q434 1130 434 1108T434 1066T433 1031Q432 955 387 913T249 871Z" />
<glyph unicode="&#xb4;" horiz-adv-x="462" d="M93 1280L246 1519H369L210 1280H93Z" />
<glyph unicode="&#xb5;" horiz-adv-x="831" d="M101 -400L99 1200H274L275 234Q276 173 300 145T376 117Q425 117 467 147T528 230V1200H702V207Q702 138 709 85T731 0H557Q548 19 542 47T532 113H499Q476 65 446 36T373 -3Q317 -14 276 3V-400H101Z" />
<glyph unicode="&#xb6;" horiz-adv-x="941" d="M469 -200V798H399Q293 798 230 828T137 922T101 1093Q100 1127 100 1165T99 1241T101 1306Q107 1412 136 1476T229 1570T399 1600H841V1498H759V-200H647V1498H581V-200H469Z" />
<glyph unicode="&#xb7;" horiz-adv-x="321" d="M90 763V905H232V763H90Z" />
<glyph unicode="&#xb8;" horiz-adv-x="426" d="M77 -281V-191H136Q186 -191 206 -170T218 -100L201 0H299L316 -100Q330 -194 286 -237T136 -281H77Z" />
<glyph unicode="&#xb9;" horiz-adv-x="336" d="M120 881V1488H45L43 1533L148 1601H249V881H120Z" />
<glyph unicode="&#xba;" horiz-adv-x="683" d="M340 753Q215 753 163 803T105 974Q104 996 103 1037T101 1130T100 1233T101 1328T105 1395Q111 1475 134 1523T206 1593T338 1615Q472 1615 523 1563T581 1395Q582 1371 583 1328T584 1234T584 1131T583 1038T581
974Q575 898 553 849T481 777T340 753ZM342 860Q396 860 417 878T440 941Q443 1015 444 1075T446 1190T445 1303T440 1428Q439 1471 418 1490T342 1509Q292 1509 269 1491T244 1428Q241 1338 240 1265T239 1115T244 941Q246 897 269 879T342 860Z" />
<glyph unicode="&#xbb;" horiz-adv-x="642" d="M352 845V1019L622 710V536L352 845ZM352 228V402L622 710V536L352 228ZM109 845V1019L379 710V536L109 845ZM109 228V402L379 710V536L109 228Z" />
<glyph unicode="&#xbc;" horiz-adv-x="849" d="M120 881V1488H45L43 1533L148 1601H249V881H120ZM-115 0L682 1600H818L19 0H-115ZM729 720V297H804V186H729V0H609V186H394V292L561 720H729ZM609 297L625 465L640 607H615L573 465L521 297H609Z" />
<glyph unicode="&#xbd;" horiz-adv-x="864" d="M120 881V1488H45L43 1533L148 1601H249V881H120ZM-115 0L682 1600H818L19 0H-115ZM443 0Q442 43 442 74T443 147Q444 228 481 276T576 358L633 391Q660 410 668 429T679 477Q681 503 681 527T679 576Q678 597 666
611T623 625Q572 625 570 577Q568 544 569 510T571 451H445Q444 478 443 506T443 561Q446 646 493 687T623 729Q715 729 760 687T807 561Q807 548 807 536T808 509T808 477Q807 407 775 367T683 293L615 258Q598 244 587 219T575 160V113H796V0H443Z" />
<glyph unicode="&#xbe;" horiz-adv-x="1048" d="M249 871Q158 871 109 910T58 1031Q58 1046 58 1058T57 1084T59 1120H186Q185 1094 185 1072T185 1031Q186 1006 200 991T245 976Q275 976 289 989T304 1028Q305 1057 305 1086T304 1147Q304 1177 289 1191T240
1206H157L153 1301L271 1487H68V1600H427L425 1491L294 1306Q358 1298 395 1261T433 1149Q434 1130 434 1108T434 1066T433 1031Q432 955 387 913T249 871ZM84 0L881 1600H1017L218 0H84ZM928 720V297H1003V186H928V0H808V186H593V292L760 720H928ZM808 297L824
465L839 607H814L772 465L720 297H808Z" />
<glyph unicode="&#xbf;" horiz-adv-x="726" d="M368 -416Q208 -416 138 -348T68 -120Q68 -32 68 19T67 100T67 157Q68 246 80 303T112 394T161 448T223 483L263 503Q303 522 311 554T321 618L328 851H459L465 617Q467 554 457 510T420 433T342 374L303 356Q276
342 263 318T246 253T242 157V-149Q242 -211 273 -241T366 -271Q426 -271 454 -241T486 -149Q491 -72 491 6T488 165H657Q658 119 658 71T659 -25T658 -120Q652 -278 585 -347T368 -416ZM268 996V1200H521V996H268Z" />
<glyph unicode="&#xc0;" horiz-adv-x="747" d="M38 0L221 1600H526L709 0H530L490 432H256L217 0H38ZM273 588H474L441 938L402 1444H346L306 938L273 588ZM299 1680L151 1919H274L417 1680H299Z" />
<glyph unicode="&#xc1;" horiz-adv-x="747" d="M38 0L221 1600H526L709 0H530L490 432H256L217 0H38ZM273 588H474L441 938L402 1444H346L306 938L273 588ZM320 1680L473 1919H596L437 1680H320Z" />
<glyph unicode="&#xc2;" horiz-adv-x="747" d="M38 0L221 1600H526L709 0H530L490 432H256L217 0H38ZM273 588H474L441 938L402 1444H346L306 938L273 588ZM181 1681L320 1921H429L567 1681H445L375 1815L303 1681H181Z" />
<glyph unicode="&#xc3;" horiz-adv-x="747" d="M38 0L221 1600H526L709 0H530L490 432H256L217 0H38ZM273 588H474L441 938L402 1444H346L306 938L273 588ZM502 1846H579Q577 1765 547 1725T462 1684Q426 1684 405 1695T370 1722T339 1749T298 1761Q274 1761 263
1743T248 1691H172Q179 1776 211 1816T299 1857Q336 1857 358 1846T394 1819T423 1792T460 1780Q483 1780 492 1797T502 1846Z" />
<glyph unicode="&#xc4;" horiz-adv-x="747" d="M38 0L221 1600H526L709 0H530L490 432H256L217 0H38ZM273 588H474L441 938L402 1444H346L306 938L273 588ZM417 1710V1842H548V1710H417ZM201 1710V1842H332V1710H201Z" />
<glyph unicode="&#xc5;" horiz-adv-x="747" d="M38 0L221 1600H526L709 0H530L490 432H256L217 0H38ZM273 588H474L441 938L402 1444H346L306 938L273 588ZM374 1673Q311 1673 265 1718T219 1828Q219 1892 265 1937T374 1983Q438 1983 484 1938T530 1828Q530 1764
484 1719T374 1673ZM374 1771Q398 1771 415 1787T432 1828Q432 1852 415 1868T374 1885Q350 1885 334 1869T317 1828Q317 1804 333 1788T374 1771Z" />
<glyph unicode="&#xc6;" horiz-adv-x="1055" d="M38 0L317 1600H1009V1444H672V886H989V730H672V156H1009V0H498V432H300L227 0H38ZM331 588H498V1444H451L385 896L331 588Z" />
<glyph unicode="&#xc7;" horiz-adv-x="770" d="M390 -16Q230 -16 162 53T90 282Q88 408 87 538T86 799T87 1061T90 1318Q93 1462 163 1538T389 1614Q545 1614 615 1546T690 1318Q691 1281 691 1228T691 1123T689 1033H514Q515 1081 516 1135T517 1244T516 1347Q515
1411 485 1440T389 1469Q326 1469 297 1440T265 1347Q262 1209 261 1073T259 800T260 527T265 253Q267 188 297 159T390 129Q459 129 491 158T524 253Q525 303 525 360T525 475T523 583H697Q700 507 700 432T698 282Q694 122 623 53T390 -16ZM213 -271V-181H272Q322
-181 342 -160T354 -90L337 10H435L452 -90Q466 -184 422 -227T272 -271H213Z" />
<glyph unicode="&#xc8;" horiz-adv-x="656" d="M99 0V1600H611V1444H274V886H591V730H274V156H611V0H99ZM269 1680L121 1919H244L387 1680H269Z" />
<glyph unicode="&#xc9;" horiz-adv-x="656" d="M99 0V1600H611V1444H274V886H591V730H274V156H611V0H99ZM290 1680L443 1919H566L407 1680H290Z" />
<glyph unicode="&#xca;" horiz-adv-x="656" d="M99 0V1600H611V1444H274V886H591V730H274V156H611V0H99ZM150 1681L289 1921H398L536 1681H414L344 1815L272 1681H150Z" />
<glyph unicode="&#xcb;" horiz-adv-x="656" d="M99 0V1600H611V1444H274V886H591V730H274V156H611V0H99ZM387 1710V1842H518V1710H387ZM171 1710V1842H302V1710H171Z" />
<glyph unicode="&#xcc;" horiz-adv-x="373" d="M99 0V1600H274V0H99ZM111 1680L-37 1919H86L229 1680H111Z" />
<glyph unicode="&#xcd;" horiz-adv-x="373" d="M99 0V1600H274V0H99ZM132 1680L285 1919H408L249 1680H132Z" />
<glyph unicode="&#xce;" horiz-adv-x="373" d="M99 0V1600H274V0H99ZM-7 1681L132 1921H241L379 1681H257L187 1815L115 1681H-7Z" />
<glyph unicode="&#xcf;" horiz-adv-x="373" d="M99 0V1600H274V0H99ZM230 1710V1842H361V1710H230ZM14 1710V1842H145V1710H14Z" />
<glyph unicode="&#xd0;" horiz-adv-x="867" d="M63 946H483V852H63V946ZM178 0V1600H471Q631 1600 702 1530T777 1298Q780 1120 781 960T781 641T777 303Q774 141 703 71T470 0H178ZM353 156H470Q538 156 569 187T602 285Q604 414 605 543T607 801T606 1059T602
1317Q601 1382 570 1413T471 1444H353V156Z" />
<glyph unicode="&#xd1;" horiz-adv-x="876" d="M99 0V1600H378L474 1093L604 156H651L619 1004L607 1600H777V0H487L382 561L276 1445H226L255 602L268 0H99ZM571 1846H648Q646 1765 616 1725T531 1684Q495 1684 474 1695T439 1722T408 1749T367 1761Q343 1761
332 1743T317 1691H241Q248 1776 280 1816T368 1857Q405 1857 427 1846T463 1819T492 1792T529 1780Q552 1780 561 1797T571 1846Z" />
<glyph unicode="&#xd2;" horiz-adv-x="788" d="M394 -15Q235 -15 165 53T91 280Q89 412 88 541T86 800T87 1058T91 1320Q94 1479 164 1547T394 1615Q554 1615 623 1547T697 1320Q699 1188 701 1058T703 799T701 541T697 280Q693 122 624 54T394 -15ZM394 131Q461
131 491 159T522 251Q526 387 528 525T530 803T528 1080T522 1349Q521 1413 491 1441T394 1470Q329 1470 299 1442T266 1349Q262 1217 260 1080T258 804T260 526T266 251Q268 187 298 159T394 131ZM320 1680L172 1919H295L438 1680H320Z" />
<glyph unicode="&#xd3;" horiz-adv-x="788" d="M394 -15Q235 -15 165 53T91 280Q89 412 88 541T86 800T87 1058T91 1320Q94 1479 164 1547T394 1615Q554 1615 623 1547T697 1320Q699 1188 701 1058T703 799T701 541T697 280Q693 122 624 54T394 -15ZM394 131Q461
131 491 159T522 251Q526 387 528 525T530 803T528 1080T522 1349Q521 1413 491 1441T394 1470Q329 1470 299 1442T266 1349Q262 1217 260 1080T258 804T260 526T266 251Q268 187 298 159T394 131ZM341 1680L494 1919H617L458 1680H341Z" />
<glyph unicode="&#xd4;" horiz-adv-x="788" d="M394 -15Q235 -15 165 53T91 280Q89 412 88 541T86 800T87 1058T91 1320Q94 1479 164 1547T394 1615Q554 1615 623 1547T697 1320Q699 1188 701 1058T703 799T701 541T697 280Q693 122 624 54T394 -15ZM394 131Q461
131 491 159T522 251Q526 387 528 525T530 803T528 1080T522 1349Q521 1413 491 1441T394 1470Q329 1470 299 1442T266 1349Q262 1217 260 1080T258 804T260 526T266 251Q268 187 298 159T394 131ZM202 1681L341 1921H450L588 1681H466L396 1815L324 1681H202Z"
/>
<glyph unicode="&#xd5;" horiz-adv-x="788" d="M394 -15Q235 -15 165 53T91 280Q89 412 88 541T86 800T87 1058T91 1320Q94 1479 164 1547T394 1615Q554 1615 623 1547T697 1320Q699 1188 701 1058T703 799T701 541T697 280Q693 122 624 54T394 -15ZM394 131Q461
131 491 159T522 251Q526 387 528 525T530 803T528 1080T522 1349Q521 1413 491 1441T394 1470Q329 1470 299 1442T266 1349Q262 1217 260 1080T258 804T260 526T266 251Q268 187 298 159T394 131ZM524 1846H601Q599 1765 569 1725T484 1684Q448 1684 427 1695T392
1722T361 1749T320 1761Q296 1761 285 1743T270 1691H194Q201 1776 233 1816T321 1857Q358 1857 380 1846T416 1819T445 1792T482 1780Q505 1780 514 1797T524 1846Z" />
<glyph unicode="&#xd6;" horiz-adv-x="788" d="M394 -15Q235 -15 165 53T91 280Q89 412 88 541T86 800T87 1058T91 1320Q94 1479 164 1547T394 1615Q554 1615 623 1547T697 1320Q699 1188 701 1058T703 799T701 541T697 280Q693 122 624 54T394 -15ZM394 131Q461
131 491 159T522 251Q526 387 528 525T530 803T528 1080T522 1349Q521 1413 491 1441T394 1470Q329 1470 299 1442T266 1349Q262 1217 260 1080T258 804T260 526T266 251Q268 187 298 159T394 131ZM438 1710V1842H569V1710H438ZM222 1710V1842H353V1710H222Z" />
<glyph unicode="&#xd7;" horiz-adv-x="810" d="M195 455L99 550L310 760L99 971L195 1066L405 856L615 1066L710 971L500 760L710 550L615 455L405 665L195 455Z" />
<glyph unicode="&#xd8;" horiz-adv-x="788" d="M394 -15Q235 -15 165 53T91 280Q89 412 88 541T86 800T87 1058T91 1320Q94 1479 164 1547T394 1615Q554 1615 623 1547T697 1320Q699 1188 701 1058T703 799T701 541T697 280Q693 122 624 54T394 -15ZM394 131Q461
131 491 159T522 251Q526 361 527 469T529 686T528 904L262 469Q262 416 263 361T266 251Q268 187 298 159T394 131ZM259 673L527 1103Q526 1164 525 1225T522 1349Q521 1413 491 1441T394 1470Q329 1470 299 1442T266 1349Q263 1238 261 1127T259 902T259 673Z"
/>
<glyph unicode="&#xd9;" horiz-adv-x="772" d="M386 -15Q226 -15 157 53T85 280Q81 609 81 940T85 1600H260Q257 1381 256 1153T256 698T259 251Q259 190 291 161T386 131Q451 131 481 160T512 251Q514 470 515 697T517 1153T512 1600H687Q691 1271 691 940T687
280Q685 122 616 54T386 -15ZM311 1680L163 1919H286L429 1680H311Z" />
<glyph unicode="&#xda;" horiz-adv-x="772" d="M386 -15Q226 -15 157 53T85 280Q81 609 81 940T85 1600H260Q257 1381 256 1153T256 698T259 251Q259 190 291 161T386 131Q451 131 481 160T512 251Q514 470 515 697T517 1153T512 1600H687Q691 1271 691 940T687
280Q685 122 616 54T386 -15ZM332 1680L485 1919H608L449 1680H332Z" />
<glyph unicode="&#xdb;" horiz-adv-x="772" d="M386 -15Q226 -15 157 53T85 280Q81 609 81 940T85 1600H260Q257 1381 256 1153T256 698T259 251Q259 190 291 161T386 131Q451 131 481 160T512 251Q514 470 515 697T517 1153T512 1600H687Q691 1271 691 940T687
280Q685 122 616 54T386 -15ZM193 1681L332 1921H441L579 1681H457L387 1815L315 1681H193Z" />
<glyph unicode="&#xdc;" horiz-adv-x="772" d="M386 -15Q226 -15 157 53T85 280Q81 609 81 940T85 1600H260Q257 1381 256 1153T256 698T259 251Q259 190 291 161T386 131Q451 131 481 160T512 251Q514 470 515 697T517 1153T512 1600H687Q691 1271 691 940T687
280Q685 122 616 54T386 -15ZM429 1710V1842H560V1710H429ZM213 1710V1842H344V1710H213Z" />
<glyph unicode="&#xdd;" horiz-adv-x="722" d="M273 0V410V412L34 1600H213L292 1164L341 703H381L428 1164L507 1600H687L448 410V408V0H273ZM300 1680L453 1919H576L417 1680H300Z" />
<glyph unicode="&#xde;" horiz-adv-x="737" d="M99 0V1600H274V1321H379Q536 1321 607 1254T684 1030Q688 909 688 812T684 609Q678 453 607 386T377 318H274V0H99ZM274 473H377Q444 473 475 504T509 601Q513 672 514 746T514 893T509 1038Q506 1103 476 1134T379
1165H274V473Z" />
<glyph unicode="&#xdf;" horiz-adv-x="768" d="M99 0V1306Q99 1411 130 1475T228 1570T401 1600Q559 1600 627 1533T696 1308Q697 1226 697 1164T695 1042Q691 953 660 902T560 826V789Q633 767 668 715T706 567Q708 518 708 474T709 386T706 292Q702 188 670
124T573 30T401 0H359V156H401Q466 156 498 190T532 294Q534 364 534 427T532 560Q530 652 498 691T395 730H366V886H390Q456 886 488 925T522 1046Q524 1101 524 1144T523 1230T521 1327Q520 1392 491 1423T397 1454Q332 1454 304 1424T275 1329L274 0H99Z" />
<glyph unicode="&#xe0;" horiz-adv-x="759" d="M290 -13Q184 -13 134 45T73 228Q72 252 72 278T72 327Q77 400 99 456T169 559T301 647Q346 671 393 691T489 730V960Q489 1022 465 1051T378 1080Q323 1080 298 1056T269 965Q268 944 268 910T267 840T269 778H99Q98
810 97 859T97 948Q101 1042 130 1101T220 1187T383 1215Q489 1215 550 1185T636 1091T662 923L661 0H487V113H461Q436 51 398 19T290 -13ZM354 117Q402 117 435 145T488 224V600Q453 588 418 571T341 525Q285 488 266 439T244 327Q244 308 244 286T245 241Q250
181 278 149T354 117ZM307 1280L159 1519H282L425 1280H307Z" />
<glyph unicode="&#xe1;" horiz-adv-x="759" d="M290 -13Q184 -13 134 45T73 228Q72 252 72 278T72 327Q77 400 99 456T169 559T301 647Q346 671 393 691T489 730V960Q489 1022 465 1051T378 1080Q323 1080 298 1056T269 965Q268 944 268 910T267 840T269 778H99Q98
810 97 859T97 948Q101 1042 130 1101T220 1187T383 1215Q489 1215 550 1185T636 1091T662 923L661 0H487V113H461Q436 51 398 19T290 -13ZM354 117Q402 117 435 145T488 224V600Q453 588 418 571T341 525Q285 488 266 439T244 327Q244 308 244 286T245 241Q250
181 278 149T354 117ZM328 1280L481 1519H604L445 1280H328Z" />
<glyph unicode="&#xe2;" horiz-adv-x="759" d="M290 -13Q184 -13 134 45T73 228Q72 252 72 278T72 327Q77 400 99 456T169 559T301 647Q346 671 393 691T489 730V960Q489 1022 465 1051T378 1080Q323 1080 298 1056T269 965Q268 944 268 910T267 840T269 778H99Q98
810 97 859T97 948Q101 1042 130 1101T220 1187T383 1215Q489 1215 550 1185T636 1091T662 923L661 0H487V113H461Q436 51 398 19T290 -13ZM354 117Q402 117 435 145T488 224V600Q453 588 418 571T341 525Q285 488 266 439T244 327Q244 308 244 286T245 241Q250
181 278 149T354 117ZM189 1281L328 1521H437L575 1281H453L383 1415L311 1281H189Z" />
<glyph unicode="&#xe3;" horiz-adv-x="759" d="M290 -13Q184 -13 134 45T73 228Q72 252 72 278T72 327Q77 400 99 456T169 559T301 647Q346 671 393 691T489 730V960Q489 1022 465 1051T378 1080Q323 1080 298 1056T269 965Q268 944 268 910T267 840T269 778H99Q98
810 97 859T97 948Q101 1042 130 1101T220 1187T383 1215Q489 1215 550 1185T636 1091T662 923L661 0H487V113H461Q436 51 398 19T290 -13ZM354 117Q402 117 435 145T488 224V600Q453 588 418 571T341 525Q285 488 266 439T244 327Q244 308 244 286T245 241Q250
181 278 149T354 117ZM510 1446H587Q585 1365 555 1325T470 1284Q434 1284 413 1295T378 1322T347 1349T306 1361Q282 1361 271 1343T256 1291H180Q187 1376 219 1416T307 1457Q344 1457 366 1446T402 1419T431 1392T468 1380Q491 1380 500 1397T510 1446Z" />
<glyph unicode="&#xe4;" horiz-adv-x="759" d="M290 -13Q184 -13 134 45T73 228Q72 252 72 278T72 327Q77 400 99 456T169 559T301 647Q346 671 393 691T489 730V960Q489 1022 465 1051T378 1080Q323 1080 298 1056T269 965Q268 944 268 910T267 840T269 778H99Q98
810 97 859T97 948Q101 1042 130 1101T220 1187T383 1215Q489 1215 550 1185T636 1091T662 923L661 0H487V113H461Q436 51 398 19T290 -13ZM354 117Q402 117 435 145T488 224V600Q453 588 418 571T341 525Q285 488 266 439T244 327Q244 308 244 286T245 241Q250
181 278 149T354 117ZM425 1310V1442H556V1310H425ZM209 1310V1442H340V1310H209Z" />
<glyph unicode="&#xe5;" horiz-adv-x="759" d="M290 -13Q184 -13 134 45T73 228Q72 252 72 278T72 327Q77 400 99 456T169 559T301 647Q346 671 393 691T489 730V960Q489 1022 465 1051T378 1080Q323 1080 298 1056T269 965Q268 944 268 910T267 840T269 778H99Q98
810 97 859T97 948Q101 1042 130 1101T220 1187T383 1215Q489 1215 550 1185T636 1091T662 923L661 0H487V113H461Q436 51 398 19T290 -13ZM354 117Q402 117 435 145T488 224V600Q453 588 418 571T341 525Q285 488 266 439T244 327Q244 308 244 286T245 241Q250
181 278 149T354 117ZM383 1273Q320 1273 274 1318T228 1428Q228 1492 274 1537T383 1583Q447 1583 493 1538T539 1428Q539 1364 493 1319T383 1273ZM383 1371Q407 1371 424 1387T441 1428Q441 1452 424 1468T383 1485Q359 1485 343 1469T326 1428Q326 1404 342
1388T383 1371Z" />
<glyph unicode="&#xe6;" horiz-adv-x="1147" d="M290 -13Q192 -13 137 45T73 228Q72 252 72 278T72 327Q79 424 133 491T301 614Q346 638 393 660T489 701Q489 744 489 787T489 874T489 960Q489 1001 479 1027T445 1067T378 1080Q323 1080 298 1056T269 965Q268
944 268 910T267 840T269 778H99Q98 799 97 829T96 890T97 948Q101 1042 130 1101T220 1187T383 1215Q452 1215 501 1203T581 1162Q616 1190 667 1202T786 1215Q933 1215 999 1153T1071 948Q1072 926 1072 889T1073 803T1073 698T1069 580H662Q662 495 662 410T662
240Q662 172 693 146T786 120Q846 120 872 146T901 240Q903 273 903 320T899 426H1069Q1072 390 1072 342T1071 256Q1065 111 1001 48T787 -15Q680 -15 614 15T518 113H503Q476 51 420 19T290 -13ZM354 117Q385 117 416 132T469 189T491 311Q491 370 490 435T489
567Q458 554 421 536T341 488Q292 456 270 419T244 327Q244 310 244 287T245 241Q250 181 278 149T354 117ZM662 708H901Q903 785 903 857T901 965Q898 1027 871 1053T786 1080Q723 1080 693 1054T662 965Q662 895 662 832T662 708Z" />
<glyph unicode="&#xe7;" horiz-adv-x="740" d="M495 778Q497 807 497 842T498 910T496 965Q495 1031 468 1055T380 1080Q318 1080 291 1056T262 965Q260 867 259 778T258 602T259 426T262 240Q264 172 291 146T382 120Q441 120 468 146T496 240Q497 275 497 321T495
425H665Q668 389 668 342T667 256Q662 111 596 48T382 -15Q230 -15 162 48T88 256Q86 326 85 414T84 596T85 780T88 941Q96 1089 163 1152T380 1215Q530 1215 596 1153T667 947Q669 910 669 863T665 778H495ZM200 -271V-181H259Q309 -181 329 -160T341 -90L324
10H422L439 -90Q453 -184 409 -227T259 -271H200Z" />
<glyph unicode="&#xe8;" horiz-adv-x="744" d="M384 -15Q231 -15 163 48T88 256Q86 326 85 413T84 596T85 780T88 941Q96 1089 164 1152T382 1215Q528 1215 594 1153T667 948Q668 919 669 860T670 725T665 567H259Q259 489 260 409T263 240Q265 172 292 146T382
120Q442 120 467 146T496 240Q498 273 498 320T496 426H665Q668 390 668 342T667 256Q660 111 597 48T384 -15ZM259 696H498Q498 752 498 806T498 903T496 965Q493 1027 467 1053T382 1080Q319 1080 292 1054T263 965Q262 892 261 826T259 696ZM302 1280L154 1519H277L420
1280H302Z" />
<glyph unicode="&#xe9;" horiz-adv-x="744" d="M384 -15Q231 -15 163 48T88 256Q86 326 85 413T84 596T85 780T88 941Q96 1089 164 1152T382 1215Q528 1215 594 1153T667 948Q668 919 669 860T670 725T665 567H259Q259 489 260 409T263 240Q265 172 292 146T382
120Q442 120 467 146T496 240Q498 273 498 320T496 426H665Q668 390 668 342T667 256Q660 111 597 48T384 -15ZM259 696H498Q498 752 498 806T498 903T496 965Q493 1027 467 1053T382 1080Q319 1080 292 1054T263 965Q262 892 261 826T259 696ZM324 1280L477 1519H600L441
1280H324Z" />
<glyph unicode="&#xea;" horiz-adv-x="744" d="M384 -15Q231 -15 163 48T88 256Q86 326 85 413T84 596T85 780T88 941Q96 1089 164 1152T382 1215Q528 1215 594 1153T667 948Q668 919 669 860T670 725T665 567H259Q259 489 260 409T263 240Q265 172 292 146T382
120Q442 120 467 146T496 240Q498 273 498 320T496 426H665Q668 390 668 342T667 256Q660 111 597 48T384 -15ZM259 696H498Q498 752 498 806T498 903T496 965Q493 1027 467 1053T382 1080Q319 1080 292 1054T263 965Q262 892 261 826T259 696ZM184 1281L323 1521H432L570
1281H448L378 1415L306 1281H184Z" />
<glyph unicode="&#xeb;" horiz-adv-x="744" d="M384 -15Q231 -15 163 48T88 256Q86 326 85 413T84 596T85 780T88 941Q96 1089 164 1152T382 1215Q528 1215 594 1153T667 948Q668 919 669 860T670 725T665 567H259Q259 489 260 409T263 240Q265 172 292 146T382
120Q442 120 467 146T496 240Q498 273 498 320T496 426H665Q668 390 668 342T667 256Q660 111 597 48T384 -15ZM259 696H498Q498 752 498 806T498 903T496 965Q493 1027 467 1053T382 1080Q319 1080 292 1054T263 965Q262 892 261 826T259 696ZM421 1310V1442H552V1310H421ZM205
1310V1442H336V1310H205Z" />
<glyph unicode="&#xec;" horiz-adv-x="380" d="M103 0V1200H277V0H103ZM114 1280L-34 1519H89L232 1280H114Z" />
<glyph unicode="&#xed;" horiz-adv-x="380" d="M103 0V1200H277V0H103ZM136 1280L289 1519H412L253 1280H136Z" />
<glyph unicode="&#xee;" horiz-adv-x="380" d="M103 0V1200H277V0H103ZM252 1281L391 1521H500L638 1281H516L446 1415L374 1281H252Z" />
<glyph unicode="&#xef;" horiz-adv-x="380" d="M103 0V1200H277V0H103ZM489 1310V1442H620V1310H489ZM273 1310V1442H404V1310H273Z" />
<glyph unicode="&#xf0;" horiz-adv-x="795" d="M403 -16Q243 -16 172 53T94 282Q92 352 91 437T90 619T93 822Q95 949 155 1017T316 1086Q378 1086 424 1062T490 998H509Q496 1068 473 1128T418 1241L275 1170L241 1237L371 1302Q337 1352 295 1391T203 1466L297
1614Q367 1565 424 1512T527 1391L653 1453L686 1386L570 1329Q635 1220 667 1081T704 762Q706 688 706 605T706 438T704 282Q701 176 670 110T574 14T403 -16ZM402 129Q464 129 496 159T530 253Q531 344 532 436T533 627T529 836Q527 887 488 914T388 942Q329
942 299 912T267 818Q266 717 265 619T265 428T268 253Q271 190 303 160T402 129Z" />
<glyph unicode="&#xf1;" horiz-adv-x="807" d="M103 0V1200H277V1087H312Q343 1149 385 1182T501 1215Q602 1215 655 1155T709 953V0H535V966Q534 1028 510 1055T433 1083Q384 1083 340 1054T277 970V0H103ZM536 1446H613Q611 1365 581 1325T496 1284Q460 1284
439 1295T404 1322T373 1349T332 1361Q308 1361 297 1343T282 1291H206Q213 1376 245 1416T333 1457Q370 1457 392 1446T428 1419T457 1392T494 1380Q517 1380 526 1397T536 1446Z" />
<glyph unicode="&#xf2;" horiz-adv-x="773" d="M387 -15Q281 -15 217 14T124 109T89 280Q87 349 86 430T84 598T85 766T89 920Q94 1026 123 1091T216 1185T387 1215Q495 1215 558 1185T650 1091T684 920Q686 851 687 769T689 602T688 434T684 280Q679 175 650
110T558 15T387 -15ZM387 120Q452 120 480 147T509 240Q512 338 514 426T516 600T514 774T509 960Q508 1025 481 1052T387 1080Q322 1080 294 1053T263 960Q261 863 260 775T258 600T259 426T263 240Q265 175 294 148T387 120ZM311 1280L163 1519H286L429 1280H311Z"
/>
<glyph unicode="&#xf3;" horiz-adv-x="773" d="M387 -15Q281 -15 217 14T124 109T89 280Q87 349 86 430T84 598T85 766T89 920Q94 1026 123 1091T216 1185T387 1215Q495 1215 558 1185T650 1091T684 920Q686 851 687 769T689 602T688 434T684 280Q679 175 650
110T558 15T387 -15ZM387 120Q452 120 480 147T509 240Q512 338 514 426T516 600T514 774T509 960Q508 1025 481 1052T387 1080Q322 1080 294 1053T263 960Q261 863 260 775T258 600T259 426T263 240Q265 175 294 148T387 120ZM333 1280L486 1519H609L450 1280H333Z"
/>
<glyph unicode="&#xf4;" horiz-adv-x="773" d="M387 -15Q281 -15 217 14T124 109T89 280Q87 349 86 430T84 598T85 766T89 920Q94 1026 123 1091T216 1185T387 1215Q495 1215 558 1185T650 1091T684 920Q686 851 687 769T689 602T688 434T684 280Q679 175 650
110T558 15T387 -15ZM387 120Q452 120 480 147T509 240Q512 338 514 426T516 600T514 774T509 960Q508 1025 481 1052T387 1080Q322 1080 294 1053T263 960Q261 863 260 775T258 600T259 426T263 240Q265 175 294 148T387 120ZM193 1281L332 1521H441L579 1281H457L387
1415L315 1281H193Z" />
<glyph unicode="&#xf5;" horiz-adv-x="773" d="M387 -15Q281 -15 217 14T124 109T89 280Q87 349 86 430T84 598T85 766T89 920Q94 1026 123 1091T216 1185T387 1215Q495 1215 558 1185T650 1091T684 920Q686 851 687 769T689 602T688 434T684 280Q679 175 650
110T558 15T387 -15ZM387 120Q452 120 480 147T509 240Q512 338 514 426T516 600T514 774T509 960Q508 1025 481 1052T387 1080Q322 1080 294 1053T263 960Q261 863 260 775T258 600T259 426T263 240Q265 175 294 148T387 120ZM515 1446H592Q590 1365 560 1325T475
1284Q439 1284 418 1295T383 1322T352 1349T311 1361Q287 1361 276 1343T261 1291H185Q192 1376 224 1416T312 1457Q349 1457 371 1446T407 1419T436 1392T473 1380Q496 1380 505 1397T515 1446Z" />
<glyph unicode="&#xf6;" horiz-adv-x="773" d="M387 -15Q281 -15 217 14T124 109T89 280Q87 349 86 430T84 598T85 766T89 920Q94 1026 123 1091T216 1185T387 1215Q495 1215 558 1185T650 1091T684 920Q686 851 687 769T689 602T688 434T684 280Q679 175 650
110T558 15T387 -15ZM387 120Q452 120 480 147T509 240Q512 338 514 426T516 600T514 774T509 960Q508 1025 481 1052T387 1080Q322 1080 294 1053T263 960Q261 863 260 775T258 600T259 426T263 240Q265 175 294 148T387 120ZM430 1310V1442H561V1310H430ZM214
1310V1442H345V1310H214Z" />
<glyph unicode="&#xf7;" horiz-adv-x="947" d="M99 693V828H847V693H99ZM393 938V1100H555V938H393ZM393 422V582H555V422H393Z" />
<glyph unicode="&#xf8;" horiz-adv-x="773" d="M133 358L603 923L658 839L197 287L133 358ZM387 -15Q281 -15 217 14T124 109T89 280Q87 349 86 430T84 598T85 766T89 920Q94 1026 123 1091T216 1185T387 1215Q495 1215 558 1185T650 1091T684 920Q686 851 687
769T689 602T688 434T684 280Q679 175 650 110T558 15T387 -15ZM387 120Q452 120 480 147T509 240Q512 338 514 426T516 600T514 774T509 960Q508 1025 481 1052T387 1080Q322 1080 294 1053T263 960Q261 863 260 775T258 600T259 426T263 240Q265 175 294 148T387
120Z" />
<glyph unicode="&#xf9;" horiz-adv-x="802" d="M307 -15Q206 -15 151 46T95 248V1200H269V234Q269 173 293 145T369 117Q418 117 462 147T525 230V1200H699V0H525V113H496Q463 47 417 16T307 -15ZM319 1280L171 1519H294L437 1280H319Z" />
<glyph unicode="&#xfa;" horiz-adv-x="802" d="M307 -15Q206 -15 151 46T95 248V1200H269V234Q269 173 293 145T369 117Q418 117 462 147T525 230V1200H699V0H525V113H496Q463 47 417 16T307 -15ZM340 1280L493 1519H616L457 1280H340Z" />
<glyph unicode="&#xfb;" horiz-adv-x="802" d="M307 -15Q206 -15 151 46T95 248V1200H269V234Q269 173 293 145T369 117Q418 117 462 147T525 230V1200H699V0H525V113H496Q463 47 417 16T307 -15ZM201 1281L340 1521H449L587 1281H465L395 1415L323 1281H201Z" />
<glyph unicode="&#xfc;" horiz-adv-x="802" d="M307 -15Q206 -15 151 46T95 248V1200H269V234Q269 173 293 145T369 117Q418 117 462 147T525 230V1200H699V0H525V113H496Q463 47 417 16T307 -15ZM438 1310V1442H569V1310H438ZM222 1310V1442H353V1310H222Z" />
<glyph unicode="&#xfd;" horiz-adv-x="707" d="M183 -410Q155 -410 118 -407T51 -399V-266Q76 -268 114 -270T182 -272Q257 -272 284 -246T321 -152L340 0H218L44 1200H222L281 626L337 134H394L441 626L497 1200H674L495 -139Q481 -236 449 -295T353 -382T183
-410ZM314 1280L467 1519H590L431 1280H314Z" />
<glyph unicode="&#xfe;" horiz-adv-x="807" d="M99 -400V1600H274V1087H304Q336 1152 376 1183T492 1215Q594 1215 646 1155T704 953Q706 890 707 800T708 610T707 416T704 248Q699 107 643 46T483 -15Q422 -15 381 14T304 113H274V-400H99ZM419 117Q471 117 499
145T529 234Q533 331 534 426T536 613T534 794T529 966Q528 1028 505 1055T430 1083Q377 1083 335 1056T274 970V230Q295 169 329 143T419 117Z" />
<glyph unicode="&#xff;" horiz-adv-x="707" d="M183 -410Q155 -410 118 -407T51 -399V-266Q76 -268 114 -270T182 -272Q257 -272 284 -246T321 -152L340 0H218L44 1200H222L281 626L337 134H394L441 626L497 1200H674L495 -139Q481 -236 449 -295T353 -382T183
-410ZM411 1310V1442H542V1310H411ZM195 1310V1442H326V1310H195Z" />
<glyph unicode="&#x2013;" horiz-adv-x="880" d="M60 674V830H820V674H60Z" />
<glyph unicode="&#x2014;" horiz-adv-x="1481" d="M60 674V830H1421V674H60Z" />
<glyph unicode="&#x2018;" horiz-adv-x="434" d="M90 1169V1357L203 1600H305L217 1376H344V1169H90Z" />
<glyph unicode="&#x2019;" horiz-adv-x="434" d="M129 1169L216 1393H90V1600H344V1413L231 1169H129Z" />
<glyph unicode="&#x201a;" horiz-adv-x="415" d="M129 -224L216 0H90V207H344V20L231 -224H129Z" />
<glyph unicode="&#x201c;" horiz-adv-x="722" d="M397 1169V1357L509 1600H612L524 1376H651V1169H397ZM72 1169V1357L185 1600H287L199 1376H326V1169H72Z" />
<glyph unicode="&#x201d;" horiz-adv-x="722" d="M111 1169L199 1393H72V1600H326V1413L213 1169H111ZM435 1169L523 1393H397V1600H651V1413L538 1169H435Z" />
<glyph unicode="&#x201e;" horiz-adv-x="810" d="M129 -224L216 0H90V207H344V20L231 -224H129ZM506 -224L593 0H467V207H721V20L608 -224H506Z" />
<glyph unicode="&#x2022;" horiz-adv-x="492" d="M90 654V967H402V654H90Z" />
<glyph unicode="&#x2039;" horiz-adv-x="419" d="M330 845L60 536V710L330 1019V845ZM330 228L60 536V710L330 402V228Z" />
<glyph unicode="&#x203a;" horiz-adv-x="419" d="M90 845V1019L359 710V536L90 845ZM90 228V402L359 710V536L90 228Z" />
</font>
</defs>
</svg>
