<?xml version="1.0" standalone="no"?>
<!DOCTYPE svg PUBLIC "-//W3C//DTD SVG 1.1//EN" "http://www.w3.org/Graphics/SVG/1.1/DTD/svg11.dtd">
<svg xmlns="http://www.w3.org/2000/svg">
<defs >
<font id="BigShouldersDisplay" horiz-adv-x="549" ><font-face
    font-family="Big Shoulders Display Thin Medium"
    units-per-em="2000"
    panose-1="0 0 0 0 0 0 0 0 0 0"
    ascent="1968"
    descent="-426"
    alphabetic="0" />
<glyph unicode=" " horiz-adv-x="418" />
<glyph unicode="!" horiz-adv-x="421" d="M155 332L131 1194V1600H291V1194L267 332H155ZM91 0V192H330V0H91Z" />
<glyph unicode="&quot;" horiz-adv-x="572" d="M121 1169L91 1395V1600H227V1395L198 1169H121ZM375 1169L345 1395V1600H481V1395L451 1169H375Z" />
<glyph unicode="#" horiz-adv-x="1166" d="M114 0L231 435H60L93 564H260L382 990H209L241 1119H410L542 1600H694L561 1119H770L903 1600H1055L922 1119H1103L1072 990H894L772 564H950L917 435H743L627 0H475L591 435H383L266 0H114ZM411 564H621L742 990H534L411 564Z" />
<glyph unicode="$" horiz-adv-x="716" d="M290 -188V-10Q181 4 133 69T78 267Q77 325 77 374T77 473T81 581H228Q224 495 224 409T228 242Q231 177 262 146T360 115Q426 115 454 146T488 242Q491 296 492 338T492 426T488 530Q485 601 466 649T391 712L279 741Q199
761 156 801T95 905T74 1063Q73 1125 74 1197T76 1336Q79 1468 128 1532T290 1610V1803H426V1610Q533 1597 582 1532T636 1335Q638 1281 637 1203T634 1040H485Q488 1119 489 1199T487 1359Q484 1425 453 1455T359 1486Q292 1486 263 1456T230 1359Q225 1286 225
1212T230 1063Q232 981 251 938T330 879L434 854Q517 835 561 794T622 687T643 530Q645 474 645 434T644 355T642 267Q637 134 587 68T426 -11V-188H290Z" />
<glyph unicode="%" horiz-adv-x="1040" d="M109 0L826 1600H938L219 0H109ZM742 -9Q663 -9 620 34T573 156Q572 222 572 291T571 429T573 567Q576 644 619 686T742 729Q822 729 865 687T912 567Q913 516 913 464T914 360T914 257T912 156Q908 78 865 35T742 -9ZM742
85Q769 85 783 100T799 138Q801 185 802 241T803 358T802 476T799 583Q798 605 784 620T742 636Q716 636 702 621T686 582Q684 518 683 438T682 280T686 138Q688 118 702 102T742 85ZM269 869Q190 869 147 912T100 1034Q99 1100 99 1169T98 1307T100 1445Q103 1522
146 1564T269 1607Q348 1607 391 1565T439 1445Q440 1394 440 1342T441 1238T441 1135T439 1034Q435 956 392 913T269 869ZM269 963Q295 963 309 978T325 1016Q328 1063 329 1119T330 1236T329 1354T325 1461Q324 1483 310 1498T269 1514Q242 1514 228 1499T213
1460Q210 1396 209 1316T209 1158T213 1016Q214 996 228 980T269 963Z" />
<glyph unicode="&amp;" horiz-adv-x="976" d="M402 -14Q251 -14 184 52T112 266Q110 350 111 406T115 507T124 599Q132 689 169 749T254 859Q203 983 173 1102T140 1325Q130 1463 191 1538T392 1614Q534 1614 596 1544T649 1332Q643 1204 594 1092T462 882Q454
871 445 859T425 833Q460 752 500 674T584 520Q581 587 576 661T563 806L691 809Q699 740 704 655T711 485T710 328Q757 256 798 196T873 91L771 0Q746 32 721 67T667 141Q649 86 615 52T528 2T402 -14ZM406 117Q468 117 500 136T544 195T559 295Q496 391 437 496T324
710Q307 685 293 655T273 589Q267 549 264 507T260 408T261 263Q264 188 298 153T406 117ZM363 966Q414 1028 446 1089T494 1210T512 1332Q520 1418 494 1459T392 1501Q329 1501 303 1462T278 1346Q278 1264 301 1167T363 966Z" />
<glyph unicode="&apos;" horiz-adv-x="318" d="M121 1169L91 1395V1600H227V1395L198 1169H121Z" />
<glyph unicode="(" horiz-adv-x="481" d="M305 -400Q228 -270 173 -107T89 239T60 605Q60 777 87 955T168 1299T305 1600H421Q320 1370 269 1112T217 600Q217 431 240 257T308 -84T421 -400H305Z" />
<glyph unicode=")" horiz-adv-x="481" d="M175 -400H60Q128 -252 173 -85T241 257T264 600Q264 853 213 1111T60 1600H175Q259 1465 313 1299T394 955T421 605Q421 421 392 239T308 -106T175 -400Z" />
<glyph unicode="*" horiz-adv-x="513" d="M50 1317L199 1392L50 1468L88 1533L227 1443L219 1608H294L285 1442L426 1533L463 1468L315 1392L463 1317L426 1252L285 1343L294 1176H219L227 1341L88 1252L50 1317Z" />
<glyph unicode="+" horiz-adv-x="903" d="M392 419V708H103V828H392V1118H512V828H801V708H512V419H392Z" />
<glyph unicode="," horiz-adv-x="423" d="M132 -214L214 0H91V194H331V19L227 -214H132Z" />
<glyph unicode="-" horiz-adv-x="667" d="M60 691V829H607V691H60Z" />
<glyph unicode="." horiz-adv-x="421" d="M91 0V192H330V0H91Z" />
<glyph unicode="/" horiz-adv-x="674" d="M60 -400L460 1600H614L214 -400H60Z" />
<glyph unicode="0" horiz-adv-x="779" d="M389 -15Q254 -15 181 57T106 263Q104 436 103 618T103 982T106 1337Q108 1472 181 1543T389 1615Q523 1615 596 1544T672 1337Q674 1207 676 1072T678 799T676 527T672 263Q670 130 597 58T389 -15ZM389 115Q514 115
518 238Q523 441 524 638T525 1019T518 1362Q515 1486 389 1486Q263 1486 260 1362Q257 1214 256 1066T254 775T255 497T260 238Q263 115 389 115Z" />
<glyph unicode="1" horiz-adv-x="418" d="M161 0V1439H89L83 1500L192 1600H315V0H161Z" />
<glyph unicode="2" horiz-adv-x="751" d="M109 0Q108 36 108 61T107 108T106 155T106 214T107 301Q109 435 137 524T215 673T328 777L421 845Q484 896 501 952T523 1069Q526 1141 526 1214T523 1359Q519 1425 488 1455T386 1486Q320 1486 290 1456T258 1359Q257
1280 257 1200T260 1040H108Q107 1092 106 1144T104 1246T105 1335Q111 1485 176 1550T387 1615Q490 1615 552 1587T643 1498T676 1336Q677 1308 678 1273T679 1200T679 1129T677 1069Q673 976 650 911T582 796T473 698L374 629Q335 598 311 547T275 433T263 301V138H671V0H109Z"
/>
<glyph unicode="3" horiz-adv-x="773" d="M374 -15Q221 -15 153 51T80 267Q79 311 79 353T78 442T80 550H234V249Q234 180 267 148T370 115Q438 115 470 147T502 249Q506 342 506 441T502 630Q499 704 466 743T347 782L229 780L224 911L485 1462H83V1600H663L661
1472L392 917Q529 910 590 844T656 631Q658 572 659 521T660 424T659 340T656 267Q650 117 585 51T374 -15Z" />
<glyph unicode="4" horiz-adv-x="803" d="M426 0V479H60V605L348 1600H571V616H716V479H571V0H426ZM210 616H426L444 1040L461 1462H421L320 1040L210 616Z" />
<glyph unicode="5" horiz-adv-x="789" d="M398 -15Q245 -15 177 51T104 267Q102 342 102 411T105 550H258Q256 503 256 450T255 346T258 249Q262 180 293 148T393 115Q461 115 491 147T526 249Q533 372 533 485T528 721Q526 787 497 817T407 848Q365 848 335 832T287
787T269 718H122V1600H670V1462H276V891H308Q327 928 369 953T470 979Q575 979 626 914T682 724Q685 640 685 563T685 413T680 267Q673 167 643 105T554 14T398 -15Z" />
<glyph unicode="6" horiz-adv-x="766" d="M384 -15Q237 -15 173 50T106 265Q104 407 103 545T102 818T103 1082T106 1334Q111 1479 181 1546T382 1613Q521 1613 591 1545T667 1334Q667 1304 667 1258T667 1166T665 1087H513Q515 1132 515 1174T516 1261T513 1359Q510
1422 481 1453T384 1484Q322 1484 292 1454T260 1359Q257 1247 256 1128T254 878H289Q309 916 356 940T462 965Q579 965 625 906T675 711Q678 630 678 557T678 412T675 265Q668 115 602 50T384 -15ZM386 114Q454 114 487 145T521 241Q523 304 523 363T524 480T524
594T521 708Q520 773 491 803T401 834Q338 834 298 803T254 711Q255 603 256 487T260 241Q262 176 292 145T386 114Z" />
<glyph unicode="7" horiz-adv-x="702" d="M139 0L486 1462H63V1600H642V1465L298 0H139Z" />
<glyph unicode="8" horiz-adv-x="765" d="M382 -15Q238 -15 172 51T99 267Q98 309 97 357T97 465T101 599Q108 687 137 736T229 812V843Q179 863 149 905T110 1019Q106 1077 104 1132T102 1239T104 1334Q110 1484 175 1549T382 1615Q524 1615 588 1550T660 1334Q662
1290 662 1239T660 1133T653 1019Q645 947 615 905T535 845V812Q592 785 623 736T662 599Q667 487 667 409T664 267Q658 117 592 51T382 -15ZM382 115Q449 115 479 147T510 249Q512 313 512 372T513 491T510 613Q509 685 479 719T382 753Q316 753 286 719T253 613Q251
518 251 431T253 249Q255 180 285 148T382 115ZM382 900Q448 900 478 934T510 1040Q512 1122 512 1196T510 1352Q509 1421 479 1453T382 1486Q316 1486 286 1454T253 1352Q252 1311 252 1273T251 1196T251 1120T253 1040Q255 968 285 934T382 900Z" />
<glyph unicode="9" horiz-adv-x="765" d="M385 -15Q238 -15 173 50T106 265Q106 295 106 340T105 433T107 512H259Q258 445 258 379T259 240Q262 176 289 145T383 114Q446 114 473 145T504 240Q507 344 508 463T511 710H481Q462 672 419 647T315 621Q249 621 199
648T119 733T88 884Q88 929 88 987T87 1108T87 1229T89 1333Q93 1483 161 1548T379 1613Q527 1613 591 1548T657 1333Q661 1149 661 970T661 614T657 265Q655 115 591 50T385 -15ZM368 752Q429 752 467 781T511 865Q510 987 508 1110T504 1357Q503 1423 472 1453T378
1484Q311 1484 278 1454T243 1357Q243 1310 243 1249T242 1121T241 991T242 879Q244 814 276 783T368 752Z" />
<glyph unicode=":" horiz-adv-x="421" d="M91 600V792H330V600H91ZM91 0V192H330V0H91Z" />
<glyph unicode=";" horiz-adv-x="423" d="M132 -214L214 0H91V194H331V19L227 -214H132ZM91 604V796H330V604H91Z" />
<glyph unicode="&lt;" horiz-adv-x="916" d="M814 552L103 670V877L814 1000V870L441 817L221 795V753L443 732L814 681V552Z" />
<glyph unicode="=" horiz-adv-x="863" d="M103 838V959H761V838H103ZM103 580V701H761V580H103Z" />
<glyph unicode="&gt;" horiz-adv-x="916" d="M103 552V681L474 732L695 753V795L475 817L103 870V1000L814 877V670L103 552Z" />
<glyph unicode="?" horiz-adv-x="687" d="M252 333L246 592Q244 651 254 692T290 762T362 816L401 834Q431 847 444 872T460 937T464 1038V1361Q464 1426 434 1456T340 1486Q280 1486 252 1456T220 1361Q216 1285 216 1205T219 1040H70Q69 1090 69 1140T68 1239T69
1336Q74 1486 137 1550T338 1615Q487 1615 552 1551T618 1337Q618 1238 618 1183T619 1096T619 1038Q617 953 607 898T578 810T532 756T469 720L430 701Q391 683 384 652T374 591L367 333H252ZM189 0V192H427V0H189Z" />
<glyph unicode="@" horiz-adv-x="1039" d="M520 -248Q379 -248 289 -217T154 -119T108 58Q106 200 105 329T103 586T104 845T108 1126Q110 1240 154 1309T288 1411T520 1443Q660 1443 750 1411T885 1309T932 1125Q934 997 934 891T935 692T934 510T932 330Q930
258 885 223T757 188Q675 188 637 211T589 277H563Q543 234 518 211T448 187Q387 187 356 228T320 367Q317 442 316 524T316 687T320 843Q325 939 357 981T451 1023Q494 1023 517 1002T561 935H580V1012H703L704 333Q704 301 717 287T757 273Q783 273 794 287T808
333Q809 415 810 502T811 687T812 894T810 1131Q806 1240 738 1287T520 1335Q372 1335 304 1288T233 1131Q229 989 228 855T226 590T227 326T233 53Q235 -50 304 -94T520 -139Q667 -139 735 -96T804 53Q805 73 805 87T803 130H925Q927 97 927 83T927 53Q924 -55
881 -121T750 -218T520 -248ZM497 279Q524 279 548 300T581 358L580 855Q570 891 546 910T497 930Q471 930 458 912T442 853Q440 774 439 690T438 522T444 357Q446 313 458 296T497 279Z" />
<glyph unicode="A" horiz-adv-x="712" d="M41 0L218 1600H494L671 0H514L473 448H239L198 0H41ZM254 586H459L427 936L385 1462H329L287 936L254 586Z" />
<glyph unicode="B" horiz-adv-x="725" d="M103 0V1600H357Q505 1600 572 1536T642 1325Q643 1234 643 1165T641 1032Q637 946 607 897T514 824V786Q579 764 610 714T643 576Q645 495 645 426T643 275Q638 129 572 65T358 0H103ZM256 138H358Q424 138 456 172T489
277Q492 355 492 424T489 570Q488 661 456 699T351 738H256V138ZM256 876H356Q422 876 454 915T488 1036Q491 1114 491 1184T488 1332Q486 1399 454 1430T357 1462H256V876Z" />
<glyph unicode="C" horiz-adv-x="735" d="M373 -15Q224 -15 160 50T93 265Q91 399 90 532T89 799T90 1067T93 1335Q96 1472 161 1542T371 1613Q518 1613 583 1549T654 1334Q655 1297 655 1242T655 1131T653 1038H499Q500 1088 500 1143T501 1254T500 1359Q499
1426 469 1455T371 1484Q308 1484 279 1455T247 1359Q244 1215 243 1077T241 800T242 523T247 241Q249 174 278 144T373 114Q443 114 475 144T508 241Q509 293 509 352T509 469T507 580H660Q663 500 663 423T662 265Q657 115 590 50T373 -15Z" />
<glyph unicode="D" horiz-adv-x="755" d="M103 0V1600H377Q527 1600 593 1534T662 1316Q665 1132 666 966T666 635T662 285Q659 133 593 67T376 0H103ZM256 138H376Q444 138 475 170T508 270Q510 403 511 535T513 800T512 1066T508 1332Q507 1399 476 1430T377
1462H256V138Z" />
<glyph unicode="E" horiz-adv-x="630" d="M103 0V1600H585V1462H256V876H565V738H256V138H585V0H103Z" />
<glyph unicode="F" horiz-adv-x="617" d="M103 0V1600H585V1462H256V876H565V738H256V0H103Z" />
<glyph unicode="G" horiz-adv-x="735" d="M377 -15Q276 -15 215 13T126 104T94 267Q91 397 90 530T89 798T90 1065T94 1327Q97 1431 126 1494T216 1586T375 1615Q517 1615 582 1550T654 1335Q657 1262 657 1188T654 1040H500Q503 1118 503 1200T500 1359Q497 1425
467 1455T375 1486Q311 1486 281 1456T248 1359Q244 1220 243 1080T241 801T242 522T248 242Q249 177 279 146T377 115Q442 115 475 146T511 242Q512 292 512 344T513 449T511 551H381V688H661Q664 609 664 505T660 267Q655 117 589 51T377 -15Z" />
<glyph unicode="H" horiz-adv-x="762" d="M103 0V1600H256V876H506V1600H660V0H506V738H256V0H103Z" />
<glyph unicode="I" horiz-adv-x="359" d="M103 0V1600H256V0H103Z" />
<glyph unicode="J" horiz-adv-x="689" d="M329 -15Q230 -15 171 13T85 104T55 267Q54 347 54 424T55 581H202Q200 529 200 470T199 353T202 242Q204 177 233 146T329 115Q395 115 423 146T451 242V1600H605V267Q605 117 542 51T329 -15Z" />
<glyph unicode="K" horiz-adv-x="729" d="M103 0V1600H265L263 1220L240 818H276L399 1252L515 1600H683L442 892L706 0H548L342 711L259 498V0H103Z" />
<glyph unicode="L" horiz-adv-x="608" d="M103 0V1600H256V138H585V0H103Z" />
<glyph unicode="M" horiz-adv-x="1111" d="M103 0V1600H376L477 952L536 144H576L633 952L735 1600H1008V0H854V470L882 1462H835L732 462L653 6H457L380 462L276 1462H231L257 470V0H103Z" />
<glyph unicode="N" horiz-adv-x="842" d="M103 0V1600H355L448 1093L581 138H627L599 1019L589 1600H739V0H477L375 568L264 1463H216L241 601L252 0H103Z" />
<glyph unicode="O" horiz-adv-x="754" d="M378 -15Q228 -15 163 49T94 263Q92 401 91 534T89 800T90 1066T94 1337Q97 1486 162 1550T378 1615Q527 1615 592 1551T660 1337Q663 1199 664 1065T666 799T665 534T660 263Q658 114 593 50T378 -15ZM378 115Q446 115
476 143T507 238Q511 380 512 521T514 804T512 1084T507 1362Q506 1428 476 1457T378 1486Q311 1486 281 1457T248 1362Q244 1224 242 1085T240 804T243 522T248 238Q250 172 280 144T378 115Z" />
<glyph unicode="P" horiz-adv-x="705" d="M103 0V1600H364Q511 1600 577 1536T649 1325Q653 1197 653 1096T649 886Q643 739 577 675T363 611H256V0H103ZM256 749H363Q430 749 461 780T495 879Q498 954 499 1030T499 1181T495 1332Q492 1399 462 1430T364 1462H256V749Z" />
<glyph unicode="Q" horiz-adv-x="754" d="M634 -195Q518 -204 457 -161T377 -15Q228 -15 163 49T94 263Q92 401 91 534T89 800T90 1066T94 1337Q97 1486 162 1550T378 1615Q527 1615 592 1551T660 1337Q663 1199 664 1065T666 799T665 534T660 263Q659 159 626
99T521 13Q529 -36 556 -55T634 -70V-195ZM378 115Q446 115 476 143T507 238Q511 380 512 521T514 804T512 1084T507 1362Q506 1428 476 1457T378 1486Q311 1486 281 1457T248 1362Q244 1224 242 1085T240 804T243 522T248 238Q250 172 280 144T378 115Z" />
<glyph unicode="R" horiz-adv-x="729" d="M103 0V1600H364Q511 1600 577 1536T649 1325Q652 1240 653 1165T653 1020T649 878Q645 777 613 716T514 628L679 0H515L367 602H256V0H103ZM256 740H363Q430 740 461 772T495 871Q498 946 499 1024T499 1179T495 1332Q492
1399 462 1430T364 1462H256V740Z" />
<glyph unicode="S" horiz-adv-x="716" d="M361 -15Q213 -15 149 51T78 267Q77 325 77 374T77 473T81 581H228Q224 495 224 409T228 242Q231 177 262 146T360 115Q426 115 454 146T488 242Q491 296 492 338T492 426T488 530Q485 601 466 649T391 712L279 741Q199
761 156 801T95 905T74 1063Q73 1125 74 1197T76 1336Q79 1436 107 1497T197 1587T360 1615Q503 1615 566 1550T636 1335Q638 1281 637 1203T634 1040H485Q488 1119 489 1199T487 1359Q484 1425 453 1455T359 1486Q292 1486 263 1456T230 1359Q225 1286 225 1212T230
1063Q232 981 251 938T330 879L434 854Q517 835 561 794T622 687T643 530Q645 474 645 434T644 355T642 267Q636 117 572 51T361 -15Z" />
<glyph unicode="T" horiz-adv-x="596" d="M221 0V1462H11V1600H585V1462H375V0H221Z" />
<glyph unicode="U" horiz-adv-x="739" d="M370 -15Q220 -15 156 49T89 263Q85 596 85 931T89 1600H242Q240 1378 239 1149T238 690T241 238Q241 175 273 145T370 115Q435 115 465 145T496 238Q498 461 499 690T501 1148T496 1600H650Q654 1267 654 932T650 263Q649
114 584 50T370 -15Z" />
<glyph unicode="V" horiz-adv-x="726" d="M224 0L47 1600H207L298 720L336 138H390L428 720L519 1600H680L502 0H224Z" />
<glyph unicode="W" horiz-adv-x="1131" d="M176 0L61 1600H216L253 982L295 138H340L377 982L442 1590H690L756 982L789 138H834L878 982L916 1600H1070L954 0H681L633 515L591 1456H540L497 515L448 0H176Z" />
<glyph unicode="X" horiz-adv-x="695" d="M43 0L232 818L52 1600H202L278 1223L329 880H368L419 1223L493 1600H643L468 813L651 0H501L421 396L368 742H329L276 396L193 0H43Z" />
<glyph unicode="Y" horiz-adv-x="687" d="M266 0V415V417L38 1600H195L274 1157L325 697H363L412 1157L491 1600H650L420 415V413V0H266Z" />
<glyph unicode="Z" horiz-adv-x="627" d="M33 0V126L426 1462H56V1600H592V1472L189 138H557V0H33Z" />
<glyph unicode="[" horiz-adv-x="525" d="M103 -400V1600H465V1516H256V-316H465V-400H103Z" />
<glyph unicode="\" horiz-adv-x="674" d="M614 -400H460L60 1600H214L614 -400Z" />
<glyph unicode="]" horiz-adv-x="525" d="M431 -400H69V-316H277V1516H69V1600H431V-400Z" />
<glyph unicode="^" horiz-adv-x="722" d="M103 925L307 1380H415L619 925H511L362 1265L211 925H103Z" />
<glyph unicode="_" horiz-adv-x="1312" d="M60 -120V-80H1252V-120H60Z" />
<glyph unicode="`" horiz-adv-x="455" d="M245 1280L103 1513H214L352 1280H245Z" />
<glyph unicode="a" horiz-adv-x="728" d="M284 -13Q182 -13 134 45T76 221Q75 246 75 272T75 321Q79 393 100 449T166 553T290 642Q334 666 380 688T475 729V971Q475 1035 451 1064T362 1094Q306 1094 279 1069T249 975Q248 953 248 919T247 848T249 785H100Q99
820 98 870T98 961Q101 1050 128 1106T214 1188T367 1214Q465 1214 522 1186T603 1098T627 940V0H474V111H449Q426 51 389 19T284 -13ZM338 104Q387 104 421 132T474 215V609Q440 596 404 578T325 528Q268 488 249 438T227 321Q226 303 226 280T228 232Q233 170
261 137T338 104Z" />
<glyph unicode="b" horiz-adv-x="762" d="M465 -15Q393 -15 354 16T283 110H260V0H106V1600H260V1090H292Q323 1153 362 1184T474 1215Q572 1215 619 1157T671 965Q673 876 674 782T676 593T675 408T671 236Q667 103 615 44T465 -15ZM417 104Q470 104 493 132T518
225Q521 310 522 401T523 587T522 780T518 976Q516 1040 493 1068T417 1097Q362 1097 321 1069T260 979V221Q279 161 320 133T417 104Z" />
<glyph unicode="c" horiz-adv-x="710" d="M483 785Q485 816 485 851T486 919T485 975Q483 1043 456 1068T365 1094Q302 1094 275 1069T245 975Q243 873 242 782T241 602T242 422T245 229Q247 159 275 133T367 107Q428 107 455 133T485 229Q485 266 485 313T483
419H633Q636 378 636 330T635 243Q630 106 569 46T367 -15Q224 -15 161 45T91 243Q89 318 88 409T87 597T88 786T91 955Q98 1095 161 1155T365 1215Q507 1215 569 1156T635 960Q637 922 637 874T633 785H483Z" />
<glyph unicode="d" horiz-adv-x="762" d="M291 -15Q193 -15 144 44T91 236Q89 317 88 407T87 592T88 781T91 965Q95 1099 145 1157T294 1215Q366 1215 405 1184T476 1090H502V1600H656V0H502V110H475Q444 50 404 18T291 -15ZM346 104Q400 104 441 132T502 221V979Q483
1040 442 1068T346 1097Q294 1097 271 1069T245 976Q241 845 240 716T240 463T245 225Q247 161 270 133T346 104Z" />
<glyph unicode="e" horiz-adv-x="715" d="M369 -14Q225 -14 161 46T91 243Q89 318 88 409T87 597T88 786T91 955Q98 1095 162 1154T368 1214Q505 1214 567 1155T635 961Q636 930 637 871T638 734T633 570H241Q241 490 242 406T245 229Q247 159 275 133T367 107Q429
107 455 133T484 229Q486 264 486 312T484 420H633Q636 379 636 331T635 243Q629 106 570 46T369 -14ZM241 686H486Q487 746 487 803T486 907T484 975Q481 1039 455 1066T368 1094Q303 1094 275 1067T245 975Q244 896 243 825T241 686Z" />
<glyph unicode="f" horiz-adv-x="504" d="M129 0V1079H32V1200H129V1360Q128 1497 192 1557T397 1617Q425 1617 459 1613T521 1604V1487Q493 1490 463 1491T399 1493Q336 1493 309 1466T282 1370V1200H487V1079H282V0H129Z" />
<glyph unicode="g" horiz-adv-x="762" d="M366 -335Q232 -335 157 -295T72 -164Q72 -155 71 -143T70 -116Q74 -60 109 -28T193 12V41Q148 54 123 79T95 145Q94 154 94 163T95 182Q98 224 127 252T198 285V314Q142 341 115 397T82 542Q81 603 80 651T79 744T80
838T82 955Q87 1046 115 1103T203 1187T361 1214Q462 1214 520 1186T607 1096H636Q640 1149 671 1174T760 1200V1079H728Q689 1079 666 1047T641 946L640 841Q641 801 641 766T641 696T641 625T638 542Q633 449 604 392T516 310T360 284Q282 285 249 267T215 207V197Q216
171 229 157T276 135T368 125Q516 121 592 77T678 -75Q679 -89 679 -103T678 -134Q672 -209 633 -253T526 -316T366 -335ZM369 -219Q420 -219 458 -211T518 -183T543 -125Q545 -112 545 -102T543 -79Q539 -41 517 -23T458 2T369 11Q293 15 251 -4T204 -81Q203 -91
203 -103T204 -125Q207 -164 227 -184T283 -212T369 -219ZM360 404Q428 404 455 431T486 525Q488 574 489 629T491 743T490 860T486 972Q483 1040 455 1067T360 1094Q293 1094 264 1067T232 971Q230 912 229 854T228 739T229 629T232 527Q236 461 264 433T360 404Z"
/>
<glyph unicode="h" horiz-adv-x="774" d="M106 0V1600H260V1090H292Q323 1153 362 1184T474 1215Q572 1215 622 1157T673 965V0H519V976Q519 1040 495 1068T417 1097Q362 1097 321 1069T260 979V0H106Z" />
<glyph unicode="i" horiz-adv-x="366" d="M73 1432V1600H294V1432H73ZM106 0V1200H260V0H106Z" />
<glyph unicode="j" horiz-adv-x="368" d="M74 1432V1600H295V1432H74ZM-9 -412Q-37 -412 -72 -408T-133 -400V-281Q-109 -285 -76 -286T-12 -288Q51 -288 79 -260T107 -165V1200H261V-155Q261 -291 197 -351T-9 -412Z" />
<glyph unicode="k" horiz-adv-x="675" d="M106 0V1600H251V1186L235 670H267L348 898L464 1200H625L415 709L670 0H511L320 546L254 409V0H106Z" />
<glyph unicode="l" horiz-adv-x="366" d="M106 0V1600H260V0H106Z" />
<glyph unicode="m" horiz-adv-x="1181" d="M106 0V1200H260V1090H289Q321 1153 360 1184T474 1215Q547 1215 593 1184T658 1082H686Q718 1145 763 1180T882 1215Q980 1215 1030 1157T1081 965V0H927V976Q926 1040 902 1068T825 1097Q772 1097 733 1066T673 977V0H519V976Q518
1040 494 1068T417 1097Q362 1097 321 1069T260 979V0H106Z" />
<glyph unicode="n" horiz-adv-x="774" d="M106 0V1200H260V1090H292Q322 1150 363 1182T474 1215Q572 1215 622 1157T673 965V0H519V976Q519 1040 495 1068T417 1097Q366 1097 323 1066T260 979V0H106Z" />
<glyph unicode="o" horiz-adv-x="742" d="M372 -15Q272 -15 212 13T125 102T92 263Q90 338 89 423T87 598T88 774T92 937Q97 1037 124 1098T212 1187T372 1215Q473 1215 532 1187T618 1097T650 937Q652 862 653 776T655 602T654 427T650 263Q645 165 618 104T532
14T372 -15ZM372 107Q437 107 465 134T496 230Q499 332 500 422T502 600T501 778T496 970Q494 1039 467 1066T372 1094Q305 1094 277 1067T246 970Q243 869 242 779T240 600T241 422T246 230Q248 162 277 135T372 107Z" />
<glyph unicode="p" horiz-adv-x="762" d="M106 -400V1200H260V1090H288Q318 1153 357 1184T469 1215Q568 1215 617 1157T671 965Q673 899 674 807T676 612T675 411T671 236Q667 103 614 44T462 -15Q401 -15 361 14T288 110H260V-400H106ZM408 104Q461 104 488
132T518 225Q521 328 522 426T524 617T522 800T518 976Q516 1040 493 1068T417 1097Q362 1097 321 1069T260 979V221Q281 158 315 131T408 104Z" />
<glyph unicode="q" horiz-adv-x="762" d="M502 -400V110H477Q445 44 405 15T302 -15Q204 -15 150 44T91 236Q90 301 89 392T87 586T88 787T91 965Q96 1099 145 1157T293 1215Q367 1215 405 1184T475 1090H502V1200H656V-400H502ZM354 104Q413 104 447 131T502
221V979Q483 1040 442 1068T346 1097Q294 1097 271 1069T245 976Q241 839 240 711T239 461T245 225Q247 161 274 133T354 104Z" />
<glyph unicode="r" horiz-adv-x="521" d="M106 0V1200H260V1082H291Q307 1150 344 1177T444 1204Q462 1204 480 1203T510 1201V1079H446Q358 1079 317 1048T260 948V0H106Z" />
<glyph unicode="s" horiz-adv-x="673" d="M331 -15Q194 -15 137 45T76 243Q75 282 75 330T78 419H215Q213 361 213 314T214 229Q216 159 243 133T331 107Q398 107 426 133T457 229Q457 258 457 278T458 317T458 363Q457 432 441 469T375 522L275 555Q203 578 159
613T95 704T73 849Q72 877 73 901T75 954Q76 1094 134 1154T339 1215Q478 1215 533 1156T594 960Q594 922 594 874T592 785H450Q452 816 452 851T452 919T451 975Q450 1043 426 1068T339 1094Q275 1094 251 1069T225 975Q224 942 223 919T223 860Q224 790 237 746T308
683L401 655Q503 626 552 562T602 370Q602 340 602 305T600 240Q597 105 537 45T331 -15Z" />
<glyph unicode="t" horiz-adv-x="504" d="M398 -15Q247 -15 189 45T130 243V1079H44V1200H132V1540H286V1200H468V1079H284V228Q284 158 304 132T400 105Q428 105 446 106T488 111V-5Q468 -9 445 -12T398 -15Z" />
<glyph unicode="u" horiz-adv-x="769" d="M301 -15Q203 -15 151 44T98 236V1200H252V225Q252 161 276 133T353 104Q404 104 447 135T510 221V1200H663V0H510V110H483Q452 47 407 16T301 -15Z" />
<glyph unicode="v" horiz-adv-x="649" d="M182 0L34 1200H191L252 595L293 119H352L394 595L458 1200H616L462 0H182Z" />
<glyph unicode="w" horiz-adv-x="1102" d="M158 0L35 1200H187L235 595L268 119H329L353 595L407 1195H692L743 595L768 119H829L863 595L912 1200H1067L939 0H653L620 461L583 1076H515L476 461L443 0H158Z" />
<glyph unicode="x" horiz-adv-x="619" d="M26 0L187 618L30 1200H179L240 942L288 683H329L378 942L441 1200H590L429 615L594 0H445L372 315L329 566H289L247 315L175 0H26Z" />
<glyph unicode="y" horiz-adv-x="677" d="M177 -408Q150 -408 113 -405T48 -397V-279Q72 -281 108 -283T175 -286Q249 -286 276 -259T312 -162L333 0H214L49 1200H206L263 621L321 120H376L429 621L485 1200H642L465 -151Q453 -243 423 -299T333 -382T177 -408Z" />
<glyph unicode="z" horiz-adv-x="591" d="M36 0V100L388 1081L44 1079V1198L555 1200V1098L199 119H544V0H36Z" />
<glyph unicode="{" horiz-adv-x="600" d="M540 -402Q440 -402 361 -368T236 -262T190 -81Q190 -56 191 -7T195 102T200 219T204 319T206 377Q206 458 179 486T106 514H60V684H106Q152 684 179 711T206 820Q206 835 205 878T201 978T197 1095T193 1204T191 1279Q191
1390 236 1461T361 1566T540 1600V1515Q483 1515 438 1485T368 1402T342 1279Q342 1256 343 1213T347 1118T351 1014T354 921T356 861Q356 763 320 697T214 616V583Q284 568 320 502T356 338Q356 319 355 278T351 185T347 81T344 -14T342 -81Q342 -149 367 -202T438
-286T540 -316V-402Z" />
<glyph unicode="|" horiz-adv-x="359" d="M103 1820H256V-240H103V1820Z" />
<glyph unicode="}" horiz-adv-x="578" d="M38 -402V-316Q95 -316 139 -286T209 -203T235 -81Q235 -58 234 -15T231 81T227 185T223 278T222 338Q222 436 258 502T364 583V616Q294 631 258 697T222 861Q222 880 223 921T226 1013T231 1117T234 1213T235 1279Q235
1349 210 1401T140 1484T38 1515V1600Q138 1600 217 1566T341 1461T387 1279Q387 1254 386 1205T382 1096T378 979T374 878T372 820Q372 739 399 712T472 684H518V514H472Q426 514 399 486T372 377Q372 362 373 319T377 219T382 103T386 -6T387 -81Q387 -191 342
-262T217 -367T38 -402Z" />
<glyph unicode="~" horiz-adv-x="934" d="M609 653Q559 656 524 674T460 716T401 759T332 784Q276 791 239 759T195 666H103Q114 793 179 850T339 899Q393 894 429 875T493 833T549 791T613 769Q669 765 703 796T740 881H832Q825 762 765 705T609 653Z" />
<glyph unicode="&#xa0;" horiz-adv-x="418" />
<glyph unicode="&#xa1;" horiz-adv-x="421" d="M155 868H267L291 6V-400H131V6L155 868ZM91 1200H330V1008H91V1200Z" />
<glyph unicode="&#xa2;" horiz-adv-x="710" d="M294 0V191Q190 204 143 264T91 443Q89 518 88 609T87 797T88 986T91 1155Q95 1275 143 1335T294 1410V1600H430V1410Q537 1399 584 1339T635 1160Q636 1122 636 1074T633 985H483Q485 1016 485 1051T485 1119T484
1175Q482 1243 455 1268T365 1294Q302 1294 275 1269T245 1175Q243 1073 242 982T241 802T242 622T245 429Q247 359 275 333T367 307Q428 307 455 333T484 429Q485 466 485 513T483 619H633Q635 578 636 530T635 443Q631 323 583 263T430 190V0H294Z" />
<glyph unicode="&#xa3;" horiz-adv-x="808" d="M128 0V132Q167 159 189 222T222 372T232 556Q232 618 228 670T216 770H107V855H195Q181 924 166 993T140 1144T129 1335Q131 1472 196 1542T407 1613Q553 1613 619 1549T690 1334Q691 1297 691 1242T690 1131T688
1038H535Q536 1075 536 1116T537 1198T537 1281T536 1359Q535 1426 505 1455T407 1484Q343 1484 314 1455T283 1359Q283 1260 295 1177T325 1016T357 855H535V770H369Q375 727 379 681T383 582Q383 424 355 325T280 171V138H706V0H128Z" />
<glyph unicode="&#xa4;" horiz-adv-x="977" d="M178 59L106 118L241 285Q223 316 215 358T204 454Q201 529 200 615T198 790T199 965T204 1128Q207 1185 216 1229T246 1306L109 1474L178 1533L310 1371Q373 1406 483 1406Q603 1406 666 1365L805 1531L874 1470L725
1295Q742 1265 751 1223T761 1128Q764 1053 765 968T767 793T766 618T761 454Q760 403 751 362T726 289L865 118L795 59L666 218Q606 177 483 177Q366 177 304 217L178 59ZM483 298Q549 298 577 325T607 421Q610 523 612 613T614 791T612 969T607 1162Q606 1230
578 1258T483 1286Q416 1286 388 1258T358 1162Q355 1060 353 970T351 791T353 613T358 421Q360 353 389 326T483 298Z" />
<glyph unicode="&#xa5;" horiz-adv-x="687" d="M267 0V191H105V259H267V310H105V378H267V412V414L38 1600H197L274 1156L325 697H363L413 1156L491 1600H650L421 414V412V378H584V310H421V259H584V191H421V0H267Z" />
<glyph unicode="&#xa6;" horiz-adv-x="359" d="M103 1820H256V1016H103V1820ZM103 536H256V-240H103V536Z" />
<glyph unicode="&#xa7;" horiz-adv-x="740" d="M363 -415Q272 -415 217 -392T137 -316T108 -172Q107 -145 107 -111T108 -43T110 19H248Q246 -20 246 -54T245 -118T246 -172Q249 -241 275 -267T363 -294Q431 -294 459 -268T490 -172Q490 -130 491 -84T490 -1Q489
69 476 108T408 159L325 180Q223 205 167 257T106 416Q104 502 104 577T106 749Q108 825 138 873T213 943V979Q162 1002 136 1044T105 1181Q103 1222 104 1276T107 1366Q114 1459 138 1511T218 1585T372 1606Q510 1606 566 1547T626 1351Q627 1313 627 1268T624
1167H483Q484 1203 485 1240T486 1310T484 1366Q481 1435 458 1456T372 1477Q308 1477 285 1456T257 1366Q256 1333 255 1275T254 1181Q258 1111 270 1073T340 1021L433 999Q523 978 575 916T634 745Q640 647 639 574T633 416Q628 347 601 304T527 238V209Q582
184 608 130T636 -5Q637 -43 636 -89T633 -172Q627 -261 601 -314T518 -391T363 -415ZM376 297Q442 297 465 334T494 420Q497 468 498 526T498 643T494 749Q489 797 467 833T376 870Q310 870 283 834T252 749Q248 678 248 585T252 420Q257 371 283 334T376 297Z"
/>
<glyph unicode="&#xa8;" horiz-adv-x="575" d="M337 1310V1431H457V1310H337ZM136 1310V1431H256V1310H136Z" />
<glyph unicode="&#xa9;" horiz-adv-x="1230" d="M616 -10Q442 -10 328 56T159 257T103 600Q103 809 158 944T328 1144T616 1210Q876 1210 1002 1062T1128 600Q1128 392 1073 257T904 56T616 -10ZM616 74Q830 74 932 201T1035 600Q1035 870 933 998T616 1126Q400
1126 298 999T195 600Q195 329 297 202T616 74ZM620 182Q513 182 466 228T413 379Q412 421 412 476T411 591T411 708T413 812Q417 919 464 965T619 1011Q727 1011 773 966T823 815Q824 794 824 777T821 738H721Q723 761 723 783T722 824Q722 885 698 906T619 928Q565
928 542 907T516 824Q514 737 514 665T514 523T516 370Q518 309 542 287T620 265Q674 265 697 287T722 370Q723 392 723 411T721 464H821Q823 439 823 420T823 379Q818 275 773 229T620 182Z" />
<glyph unicode="&#xaa;" horiz-adv-x="652" d="M271 754Q190 754 153 793T105 924Q104 942 104 957T103 993Q108 1071 145 1123T277 1217Q311 1233 348 1248T427 1276Q427 1318 426 1358T423 1436Q422 1477 404 1498T333 1519Q291 1519 270 1502T243 1438Q242
1428 242 1402T242 1348T244 1308H123Q122 1320 122 1345T121 1395T121 1427Q126 1523 172 1568T338 1614Q417 1614 462 1594T526 1528T547 1410Q548 1379 548 1317T548 1176T548 1018T547 871T547 765H423Q423 784 423 804T425 844H405Q384 801 355 778T271 754ZM315
847Q352 847 381 866T426 925Q427 989 427 1053T427 1181Q399 1173 369 1161T304 1127Q259 1102 244 1068T225 993Q225 987 225 966T227 933Q229 890 253 869T315 847Z" />
<glyph unicode="&#xab;" horiz-adv-x="626" d="M538 846L276 544V701L538 1004V846ZM538 242L276 544V701L538 399V242ZM512 846L250 544V701L512 1004V846ZM512 242L250 544V701L512 399V242Z" />
<glyph unicode="&#xac;" horiz-adv-x="863" d="M640 527V838H103V959H761V527H640Z" />
<glyph unicode="&#xad;" horiz-adv-x="667" d="M60 691V829H607V691H60Z" />
<glyph unicode="&#xae;" horiz-adv-x="802" d="M404 1030Q252 1030 178 1116T103 1377Q103 1556 177 1641T404 1727Q553 1727 626 1642T700 1377Q700 1202 627 1116T404 1030ZM404 1083Q531 1083 589 1153T647 1377Q647 1533 589 1603T404 1674Q274 1674 215 1605T156
1377Q156 1223 215 1153T404 1083ZM316 1176V1600H407Q456 1600 479 1581T505 1512Q506 1493 506 1478T505 1446Q504 1419 492 1403T455 1380V1369Q480 1363 491 1348T504 1303Q505 1284 505 1266T506 1226T505 1176H445Q446 1213 446 1248T444 1310Q441 1350 407
1350H375V1176H316ZM375 1404H407Q424 1404 433 1412T444 1440Q445 1458 445 1476T444 1515Q443 1547 407 1547H375V1404Z" />
<glyph unicode="&#xaf;" horiz-adv-x="752" d="M140 1358H610V1275H140V1358Z" />
<glyph unicode="&#xb0;" horiz-adv-x="643" d="M323 1182Q263 1182 213 1212T133 1291T103 1400Q103 1460 133 1510T213 1590T323 1620Q382 1620 431 1590T511 1510T541 1400Q541 1341 511 1292T432 1212T323 1182ZM323 1257Q382 1257 424 1299T467 1400Q467 1461
425 1503T323 1546Q262 1546 220 1504T177 1400Q177 1342 219 1300T323 1257Z" />
<glyph unicode="&#xb1;" horiz-adv-x="903" d="M392 566V708H103V828H392V998H512V828H801V708H512V566H392ZM103 369V470H801V369H103Z" />
<glyph unicode="&#xb2;" horiz-adv-x="462" d="M66 880Q66 921 66 952T66 1024Q67 1109 102 1156T191 1236L244 1268Q271 1288 279 1308T290 1358Q292 1386 292 1412T290 1465Q289 1487 277 1501T233 1516Q180 1516 178 1466Q177 1432 178 1397T180 1335H68Q67
1364 66 1394T66 1452Q68 1532 112 1570T233 1609Q319 1609 360 1569T403 1452Q404 1438 404 1424T405 1394T405 1358Q404 1289 374 1251T287 1179L225 1145Q207 1130 196 1102T184 1036V980H395V880H66Z" />
<glyph unicode="&#xb3;" horiz-adv-x="467" d="M236 871Q151 871 106 908T59 1022Q59 1039 59 1052T58 1082T60 1122H173Q172 1093 172 1068T172 1022Q173 996 186 981T232 965Q262 965 276 979T291 1019Q292 1052 292 1085T291 1153Q291 1183 276 1198T226 1213H150L146
1298L264 1500H67V1600H402L401 1504L272 1303Q333 1296 369 1262T406 1154Q407 1134 407 1109T407 1061T406 1023Q405 950 364 911T236 871Z" />
<glyph unicode="&#xb4;" horiz-adv-x="451" d="M96 1280L243 1513H355L203 1280H96Z" />
<glyph unicode="&#xb5;" horiz-adv-x="797" d="M104 -400L103 1200H256L258 225Q258 161 282 133T359 104Q410 104 451 135T511 221V1200H665V200Q665 133 672 81T694 0H541Q532 19 526 46T515 110H485Q462 62 431 33T357 -4Q298 -13 258 7V-400H104Z" />
<glyph unicode="&#xb6;" horiz-adv-x="907" d="M454 -200V822H384Q284 822 225 850T138 939T105 1099Q104 1136 104 1176T103 1255T105 1324Q110 1423 138 1483T225 1572T384 1600H805V1508H723V-200H621V1508H555V-200H454Z" />
<glyph unicode="&#xb7;" horiz-adv-x="312" d="M91 769V898H221V769H91Z" />
<glyph unicode="&#xb8;" horiz-adv-x="422" d="M78 -272V-191H136Q184 -191 203 -170T214 -102L195 0H284L303 -102Q316 -189 276 -230T136 -272H78Z" />
<glyph unicode="&#xb9;" horiz-adv-x="319" d="M116 881V1498H46L44 1539L141 1601H231V881H116Z" />
<glyph unicode="&#xba;" horiz-adv-x="661" d="M330 754Q212 754 163 800T108 961Q107 984 106 1028T105 1127T104 1237T105 1337T108 1408Q114 1482 135 1528T203 1594T328 1615Q454 1615 502 1565T556 1408Q557 1383 558 1338T559 1237T560 1128T559 1029T556
961Q551 890 531 844T463 776T330 754ZM332 849Q386 849 408 868T431 933Q434 1009 435 1071T437 1190T436 1306T431 1436Q430 1481 408 1500T332 1519Q281 1519 258 1501T232 1435Q229 1342 228 1266T227 1113T232 933Q234 886 258 868T332 849Z" />
<glyph unicode="&#xbb;" horiz-adv-x="626" d="M344 846V1004L606 701V544L344 846ZM344 242V399L606 701V544L344 242ZM114 846V1004L376 701V544L114 846ZM114 242V399L376 701V544L114 242Z" />
<glyph unicode="&#xbc;" horiz-adv-x="808" d="M116 881V1498H46L44 1539L141 1601H231V881H116ZM-101 0L652 1600H772L18 0H-101ZM690 720V292H763V193H690V0H584V193H381V288L539 720H690ZM584 292L598 466L611 620H588L545 466L494 292H584Z" />
<glyph unicode="&#xbd;" horiz-adv-x="822" d="M116 881V1498H46L44 1539L141 1601H231V881H116ZM-101 0L652 1600H772L18 0H-101ZM426 0Q426 41 426 72T426 144Q427 229 462 276T551 356L604 388Q631 408 639 428T650 478Q652 506 652 532T650 585Q649 607 637
621T593 636Q540 636 538 586Q537 552 538 517T540 455H428Q427 484 426 514T426 572Q428 652 472 690T593 729Q679 729 720 689T763 572Q764 558 764 544T765 514T765 478Q764 409 734 371T647 299L585 265Q567 250 556 222T544 156V100H755V0H426Z" />
<glyph unicode="&#xbe;" horiz-adv-x="992" d="M236 871Q151 871 106 908T59 1022Q59 1039 59 1052T58 1082T60 1122H173Q172 1093 172 1068T172 1022Q173 996 186 981T232 965Q262 965 276 979T291 1019Q292 1052 292 1085T291 1153Q291 1183 276 1198T226 1213H150L146
1298L264 1500H67V1600H402L401 1504L272 1303Q333 1296 369 1262T406 1154Q407 1134 407 1109T407 1061T406 1023Q405 950 364 911T236 871ZM82 0L835 1600H955L201 0H82ZM873 720V292H946V193H873V0H767V193H564V288L722 720H873ZM767 292L781 466L794 620H771L728
466L677 292H767Z" />
<glyph unicode="&#xbf;" horiz-adv-x="687" d="M349 -415Q200 -415 135 -351T69 -137Q69 -38 69 17T68 105T68 162Q70 248 80 302T109 390T155 444T218 481L257 499Q296 518 304 548T314 609L320 867H436L441 608Q443 549 434 508T398 438T325 385L286 366Q257
353 244 329T227 263T223 162V-160Q223 -225 253 -255T347 -286Q407 -286 435 -256T467 -160Q471 -84 471 -4T468 160H617Q618 111 619 61T620 -39T618 -136Q613 -285 551 -350T349 -415ZM260 1008V1200H499V1008H260Z" />
<glyph unicode="&#xc0;" horiz-adv-x="712" d="M41 0L218 1600H494L671 0H514L473 448H239L198 0H41ZM254 586H459L427 936L385 1462H329L287 936L254 586ZM290 1680L148 1913H259L397 1680H290Z" />
<glyph unicode="&#xc1;" horiz-adv-x="712" d="M41 0L218 1600H494L671 0H514L473 448H239L198 0H41ZM254 586H459L427 936L385 1462H329L287 936L254 586ZM307 1680L454 1913H566L414 1680H307Z" />
<glyph unicode="&#xc2;" horiz-adv-x="712" d="M41 0L218 1600H494L671 0H514L473 448H239L198 0H41ZM254 586H459L427 936L385 1462H329L287 936L254 586ZM174 1681L308 1914H406L540 1681H430L358 1818L284 1681H174Z" />
<glyph unicode="&#xc3;" horiz-adv-x="712" d="M41 0L218 1600H494L671 0H514L473 448H239L198 0H41ZM254 586H459L427 936L385 1462H329L287 936L254 586ZM483 1837H554Q552 1762 524 1724T443 1686Q408 1686 388 1697T354 1723T325 1749T284 1760Q262 1760 251
1742T235 1691H165Q172 1770 202 1808T286 1847Q322 1847 343 1836T378 1810T405 1784T442 1772Q463 1772 472 1789T483 1837Z" />
<glyph unicode="&#xc4;" horiz-adv-x="712" d="M41 0L218 1600H494L671 0H514L473 448H239L198 0H41ZM254 586H459L427 936L385 1462H329L287 936L254 586ZM398 1710V1831H518V1710H398ZM197 1710V1831H317V1710H197Z" />
<glyph unicode="&#xc5;" horiz-adv-x="712" d="M41 0L218 1600H494L671 0H514L473 448H239L198 0H41ZM254 586H459L427 936L385 1462H329L287 936L254 586ZM357 1674Q298 1674 255 1716T212 1819Q212 1879 255 1922T357 1965Q417 1965 460 1922T503 1819Q503 1759
460 1717T357 1674ZM357 1763Q381 1763 397 1779T414 1819Q414 1843 398 1859T357 1876Q334 1876 318 1860T301 1819Q301 1795 317 1779T357 1763Z" />
<glyph unicode="&#xc6;" horiz-adv-x="1003" d="M41 0L312 1600H957V1462H629V876H937V738H629V138H957V0H475V448H281L207 0H41ZM307 586H475V1462H430L361 901L307 586Z" />
<glyph unicode="&#xc7;" horiz-adv-x="735" d="M373 -15Q224 -15 160 50T93 265Q91 399 90 532T89 799T90 1067T93 1335Q96 1472 161 1542T371 1613Q518 1613 583 1549T654 1334Q655 1297 655 1242T655 1131T653 1038H499Q500 1088 500 1143T501 1254T500 1359Q499
1426 469 1455T371 1484Q308 1484 279 1455T247 1359Q244 1215 243 1077T241 800T242 523T247 241Q249 174 278 144T373 114Q443 114 475 144T508 241Q509 293 509 352T509 469T507 580H660Q663 500 663 423T662 265Q657 115 590 50T373 -15ZM207 -263V-182H265Q313
-182 332 -161T343 -93L324 9H413L432 -93Q445 -180 405 -221T265 -263H207Z" />
<glyph unicode="&#xc8;" horiz-adv-x="630" d="M103 0V1600H585V1462H256V876H565V738H256V138H585V0H103ZM266 1680L124 1913H235L373 1680H266Z" />
<glyph unicode="&#xc9;" horiz-adv-x="630" d="M103 0V1600H585V1462H256V876H565V738H256V138H585V0H103ZM283 1680L430 1913H542L390 1680H283Z" />
<glyph unicode="&#xca;" horiz-adv-x="630" d="M103 0V1600H585V1462H256V876H565V738H256V138H585V0H103ZM151 1681L285 1914H383L517 1681H407L335 1818L261 1681H151Z" />
<glyph unicode="&#xcb;" horiz-adv-x="630" d="M103 0V1600H585V1462H256V876H565V738H256V138H585V0H103ZM375 1710V1831H495V1710H375ZM174 1710V1831H294V1710H174Z" />
<glyph unicode="&#xcc;" horiz-adv-x="359" d="M103 0V1600H256V0H103ZM112 1680L-30 1913H81L219 1680H112Z" />
<glyph unicode="&#xcd;" horiz-adv-x="359" d="M103 0V1600H256V0H103ZM129 1680L276 1913H388L236 1680H129Z" />
<glyph unicode="&#xce;" horiz-adv-x="359" d="M103 0V1600H256V0H103ZM-3 1681L131 1914H229L363 1681H253L181 1818L107 1681H-3Z" />
<glyph unicode="&#xcf;" horiz-adv-x="359" d="M103 0V1600H256V0H103ZM221 1710V1831H341V1710H221ZM20 1710V1831H140V1710H20Z" />
<glyph unicode="&#xd0;" horiz-adv-x="830" d="M65 946H461V861H65V946ZM178 0V1600H453Q602 1600 668 1534T737 1316Q740 1132 741 966T741 635T737 285Q735 133 668 67T451 0H178ZM332 138H451Q520 138 551 170T584 270Q586 403 587 535T588 800T587 1066T584
1332Q583 1399 552 1430T453 1462H332V138Z" />
<glyph unicode="&#xd1;" horiz-adv-x="842" d="M103 0V1600H355L448 1093L581 138H627L599 1019L589 1600H739V0H477L375 568L264 1463H216L241 601L252 0H103ZM552 1837H623Q621 1762 593 1724T512 1686Q477 1686 457 1697T423 1723T394 1749T353 1760Q331 1760
320 1742T304 1691H234Q241 1770 271 1808T355 1847Q391 1847 412 1836T447 1810T474 1784T511 1772Q532 1772 541 1789T552 1837Z" />
<glyph unicode="&#xd2;" horiz-adv-x="754" d="M378 -15Q228 -15 163 49T94 263Q92 401 91 534T89 800T90 1066T94 1337Q97 1486 162 1550T378 1615Q527 1615 592 1551T660 1337Q663 1199 664 1065T666 799T665 534T660 263Q658 114 593 50T378 -15ZM378 115Q446
115 476 143T507 238Q511 380 512 521T514 804T512 1084T507 1362Q506 1428 476 1457T378 1486Q311 1486 281 1457T248 1362Q244 1224 242 1085T240 804T243 522T248 238Q250 172 280 144T378 115ZM311 1680L169 1913H280L418 1680H311Z" />
<glyph unicode="&#xd3;" horiz-adv-x="754" d="M378 -15Q228 -15 163 49T94 263Q92 401 91 534T89 800T90 1066T94 1337Q97 1486 162 1550T378 1615Q527 1615 592 1551T660 1337Q663 1199 664 1065T666 799T665 534T660 263Q658 114 593 50T378 -15ZM378 115Q446
115 476 143T507 238Q511 380 512 521T514 804T512 1084T507 1362Q506 1428 476 1457T378 1486Q311 1486 281 1457T248 1362Q244 1224 242 1085T240 804T243 522T248 238Q250 172 280 144T378 115ZM328 1680L475 1913H587L435 1680H328Z" />
<glyph unicode="&#xd4;" horiz-adv-x="754" d="M378 -15Q228 -15 163 49T94 263Q92 401 91 534T89 800T90 1066T94 1337Q97 1486 162 1550T378 1615Q527 1615 592 1551T660 1337Q663 1199 664 1065T666 799T665 534T660 263Q658 114 593 50T378 -15ZM378 115Q446
115 476 143T507 238Q511 380 512 521T514 804T512 1084T507 1362Q506 1428 476 1457T378 1486Q311 1486 281 1457T248 1362Q244 1224 242 1085T240 804T243 522T248 238Q250 172 280 144T378 115ZM196 1681L330 1914H428L562 1681H452L380 1818L306 1681H196Z"
/>
<glyph unicode="&#xd5;" horiz-adv-x="754" d="M378 -15Q228 -15 163 49T94 263Q92 401 91 534T89 800T90 1066T94 1337Q97 1486 162 1550T378 1615Q527 1615 592 1551T660 1337Q663 1199 664 1065T666 799T665 534T660 263Q658 114 593 50T378 -15ZM378 115Q446
115 476 143T507 238Q511 380 512 521T514 804T512 1084T507 1362Q506 1428 476 1457T378 1486Q311 1486 281 1457T248 1362Q244 1224 242 1085T240 804T243 522T248 238Q250 172 280 144T378 115ZM504 1837H575Q573 1762 545 1724T464 1686Q429 1686 409 1697T375
1723T346 1749T305 1760Q283 1760 272 1742T256 1691H186Q193 1770 223 1808T307 1847Q343 1847 364 1836T399 1810T426 1784T463 1772Q484 1772 493 1789T504 1837Z" />
<glyph unicode="&#xd6;" horiz-adv-x="754" d="M378 -15Q228 -15 163 49T94 263Q92 401 91 534T89 800T90 1066T94 1337Q97 1486 162 1550T378 1615Q527 1615 592 1551T660 1337Q663 1199 664 1065T666 799T665 534T660 263Q658 114 593 50T378 -15ZM378 115Q446
115 476 143T507 238Q511 380 512 521T514 804T512 1084T507 1362Q506 1428 476 1457T378 1486Q311 1486 281 1457T248 1362Q244 1224 242 1085T240 804T243 522T248 238Q250 172 280 144T378 115ZM420 1710V1831H540V1710H420ZM219 1710V1831H339V1710H219Z" />
<glyph unicode="&#xd7;" horiz-adv-x="784" d="M188 479L103 564L308 768L103 973L188 1058L392 853L597 1058L682 973L477 768L682 564L597 479L392 684L188 479Z" />
<glyph unicode="&#xd8;" horiz-adv-x="754" d="M378 -15Q228 -15 163 49T94 263Q92 401 91 534T89 800T90 1066T94 1337Q97 1486 162 1550T378 1615Q527 1615 592 1551T660 1337Q663 1199 664 1065T666 799T665 534T660 263Q658 114 593 50T378 -15ZM378 115Q446
115 476 143T507 238Q510 357 512 471T514 698T512 928L244 472Q244 415 245 357T248 238Q250 172 280 144T378 115ZM241 658L512 1106Q511 1169 510 1232T507 1362Q506 1428 476 1457T378 1486Q311 1486 281 1457T248 1362Q245 1244 243 1128T241 895T241 658Z"
/>
<glyph unicode="&#xd9;" horiz-adv-x="739" d="M370 -15Q220 -15 156 49T89 263Q85 596 85 931T89 1600H242Q240 1378 239 1149T238 690T241 238Q241 175 273 145T370 115Q435 115 465 145T496 238Q498 461 499 690T501 1148T496 1600H650Q654 1267 654 932T650
263Q649 114 584 50T370 -15ZM302 1680L160 1913H271L409 1680H302Z" />
<glyph unicode="&#xda;" horiz-adv-x="739" d="M370 -15Q220 -15 156 49T89 263Q85 596 85 931T89 1600H242Q240 1378 239 1149T238 690T241 238Q241 175 273 145T370 115Q435 115 465 145T496 238Q498 461 499 690T501 1148T496 1600H650Q654 1267 654 932T650
263Q649 114 584 50T370 -15ZM319 1680L466 1913H578L426 1680H319Z" />
<glyph unicode="&#xdb;" horiz-adv-x="739" d="M370 -15Q220 -15 156 49T89 263Q85 596 85 931T89 1600H242Q240 1378 239 1149T238 690T241 238Q241 175 273 145T370 115Q435 115 465 145T496 238Q498 461 499 690T501 1148T496 1600H650Q654 1267 654 932T650
263Q649 114 584 50T370 -15ZM186 1681L320 1914H418L552 1681H442L370 1818L296 1681H186Z" />
<glyph unicode="&#xdc;" horiz-adv-x="739" d="M370 -15Q220 -15 156 49T89 263Q85 596 85 931T89 1600H242Q240 1378 239 1149T238 690T241 238Q241 175 273 145T370 115Q435 115 465 145T496 238Q498 461 499 690T501 1148T496 1600H650Q654 1267 654 932T650
263Q649 114 584 50T370 -15ZM411 1710V1831H531V1710H411ZM210 1710V1831H330V1710H210Z" />
<glyph unicode="&#xdd;" horiz-adv-x="687" d="M266 0V415V417L38 1600H195L274 1157L325 697H363L412 1157L491 1600H650L420 415V413V0H266ZM287 1680L434 1913H546L394 1680H287Z" />
<glyph unicode="&#xde;" horiz-adv-x="704" d="M103 0V1600H256V1315H364Q511 1315 577 1251T649 1040Q653 912 653 811T649 601Q643 454 577 390T363 326H256V0H103ZM256 464H363Q430 464 461 495T495 594Q499 669 500 745T500 896T495 1047Q492 1114 462 1145T364
1177H256V464Z" />
<glyph unicode="&#xdf;" horiz-adv-x="731" d="M103 0V1323Q103 1423 131 1483T222 1572T384 1600Q532 1600 595 1536T659 1325Q661 1234 661 1165T659 1032Q655 946 625 897T531 825V789Q600 768 633 718T669 576Q671 522 671 474T672 378T669 275Q665 178 635
118T544 29T385 0H342V138H385Q450 138 482 172T515 277Q518 355 518 424T515 570Q514 661 482 699T378 738H348V876H373Q440 876 472 915T505 1036Q508 1094 508 1141T507 1235T505 1341Q503 1408 475 1439T381 1471Q314 1471 286 1441T258 1343L256 0H103Z" />
<glyph unicode="&#xe0;" horiz-adv-x="728" d="M284 -13Q182 -13 134 45T76 221Q75 246 75 272T75 321Q79 393 100 449T166 553T290 642Q334 666 380 688T475 729V971Q475 1035 451 1064T362 1094Q306 1094 279 1069T249 975Q248 953 248 919T247 848T249 785H100Q99
820 98 870T98 961Q101 1050 128 1106T214 1188T367 1214Q465 1214 522 1186T603 1098T627 940V0H474V111H449Q426 51 389 19T284 -13ZM338 104Q387 104 421 132T474 215V609Q440 596 404 578T325 528Q268 488 249 438T227 321Q226 303 226 280T228 232Q233 170
261 137T338 104ZM298 1280L156 1513H267L405 1280H298Z" />
<glyph unicode="&#xe1;" horiz-adv-x="728" d="M284 -13Q182 -13 134 45T76 221Q75 246 75 272T75 321Q79 393 100 449T166 553T290 642Q334 666 380 688T475 729V971Q475 1035 451 1064T362 1094Q306 1094 279 1069T249 975Q248 953 248 919T247 848T249 785H100Q99
820 98 870T98 961Q101 1050 128 1106T214 1188T367 1214Q465 1214 522 1186T603 1098T627 940V0H474V111H449Q426 51 389 19T284 -13ZM338 104Q387 104 421 132T474 215V609Q440 596 404 578T325 528Q268 488 249 438T227 321Q226 303 226 280T228 232Q233 170
261 137T338 104ZM315 1280L462 1513H574L422 1280H315Z" />
<glyph unicode="&#xe2;" horiz-adv-x="728" d="M284 -13Q182 -13 134 45T76 221Q75 246 75 272T75 321Q79 393 100 449T166 553T290 642Q334 666 380 688T475 729V971Q475 1035 451 1064T362 1094Q306 1094 279 1069T249 975Q248 953 248 919T247 848T249 785H100Q99
820 98 870T98 961Q101 1050 128 1106T214 1188T367 1214Q465 1214 522 1186T603 1098T627 940V0H474V111H449Q426 51 389 19T284 -13ZM338 104Q387 104 421 132T474 215V609Q440 596 404 578T325 528Q268 488 249 438T227 321Q226 303 226 280T228 232Q233 170
261 137T338 104ZM183 1281L317 1514H415L549 1281H439L367 1418L293 1281H183Z" />
<glyph unicode="&#xe3;" horiz-adv-x="728" d="M284 -13Q182 -13 134 45T76 221Q75 246 75 272T75 321Q79 393 100 449T166 553T290 642Q334 666 380 688T475 729V971Q475 1035 451 1064T362 1094Q306 1094 279 1069T249 975Q248 953 248 919T247 848T249 785H100Q99
820 98 870T98 961Q101 1050 128 1106T214 1188T367 1214Q465 1214 522 1186T603 1098T627 940V0H474V111H449Q426 51 389 19T284 -13ZM338 104Q387 104 421 132T474 215V609Q440 596 404 578T325 528Q268 488 249 438T227 321Q226 303 226 280T228 232Q233 170
261 137T338 104ZM491 1437H562Q560 1362 532 1324T451 1286Q416 1286 396 1297T362 1323T333 1349T292 1360Q270 1360 259 1342T243 1291H173Q180 1370 210 1408T294 1447Q330 1447 351 1436T386 1410T413 1384T450 1372Q471 1372 480 1389T491 1437Z" />
<glyph unicode="&#xe4;" horiz-adv-x="728" d="M284 -13Q182 -13 134 45T76 221Q75 246 75 272T75 321Q79 393 100 449T166 553T290 642Q334 666 380 688T475 729V971Q475 1035 451 1064T362 1094Q306 1094 279 1069T249 975Q248 953 248 919T247 848T249 785H100Q99
820 98 870T98 961Q101 1050 128 1106T214 1188T367 1214Q465 1214 522 1186T603 1098T627 940V0H474V111H449Q426 51 389 19T284 -13ZM338 104Q387 104 421 132T474 215V609Q440 596 404 578T325 528Q268 488 249 438T227 321Q226 303 226 280T228 232Q233 170
261 137T338 104ZM407 1310V1431H527V1310H407ZM206 1310V1431H326V1310H206Z" />
<glyph unicode="&#xe5;" horiz-adv-x="728" d="M284 -13Q182 -13 134 45T76 221Q75 246 75 272T75 321Q79 393 100 449T166 553T290 642Q334 666 380 688T475 729V971Q475 1035 451 1064T362 1094Q306 1094 279 1069T249 975Q248 953 248 919T247 848T249 785H100Q99
820 98 870T98 961Q101 1050 128 1106T214 1188T367 1214Q465 1214 522 1186T603 1098T627 940V0H474V111H449Q426 51 389 19T284 -13ZM338 104Q387 104 421 132T474 215V609Q440 596 404 578T325 528Q268 488 249 438T227 321Q226 303 226 280T228 232Q233 170
261 137T338 104ZM366 1274Q307 1274 264 1316T221 1419Q221 1479 264 1522T366 1565Q426 1565 469 1522T512 1419Q512 1359 469 1317T366 1274ZM366 1363Q390 1363 406 1379T423 1419Q423 1443 407 1459T366 1476Q343 1476 327 1460T310 1419Q310 1395 326 1379T366
1363Z" />
<glyph unicode="&#xe6;" horiz-adv-x="1102" d="M284 -13Q189 -13 136 45T76 221Q75 246 75 272T75 321Q81 414 133 481T290 603Q334 627 381 650T476 694Q476 740 476 786T476 879T476 971Q476 1014 466 1041T430 1081T362 1094Q306 1094 279 1069T249 975Q248
953 248 919T247 848T249 785H100Q99 808 98 839T97 902T98 961Q101 1050 128 1106T214 1188T367 1214Q433 1214 480 1201T557 1160Q590 1189 639 1201T755 1214Q893 1214 955 1155T1022 961Q1023 938 1023 901T1024 814T1024 707T1020 585H628Q628 497 628 408T628
229Q628 159 659 133T754 107Q816 107 842 133T872 229Q874 264 874 312T871 420H1020Q1023 379 1023 331T1022 243Q1017 106 957 46T756 -14Q653 -14 591 15T501 111H487Q462 51 409 19T284 -13ZM338 104Q370 104 402 119T455 176T478 296Q478 360 477 429T476
570Q445 556 407 537T325 485Q276 451 253 414T227 321Q226 305 226 281T228 232Q233 170 261 137T338 104ZM628 701H873Q874 784 874 860T872 975Q869 1039 842 1066T755 1094Q690 1094 659 1067T628 975Q628 900 628 832T628 701Z" />
<glyph unicode="&#xe7;" horiz-adv-x="710" d="M483 785Q485 816 485 851T486 919T485 975Q483 1043 456 1068T365 1094Q302 1094 275 1069T245 975Q243 873 242 782T241 602T242 422T245 229Q247 159 275 133T367 107Q428 107 455 133T485 229Q485 266 485 313T483
419H633Q636 378 636 330T635 243Q630 106 569 46T367 -15Q224 -15 161 45T91 243Q89 318 88 409T87 597T88 786T91 955Q98 1095 161 1155T365 1215Q507 1215 569 1156T635 960Q637 922 637 874T633 785H483ZM198 -263V-182H256Q304 -182 323 -161T334 -93L315
9H404L423 -93Q436 -180 396 -221T256 -263H198Z" />
<glyph unicode="&#xe8;" horiz-adv-x="715" d="M369 -14Q225 -14 161 46T91 243Q89 318 88 409T87 597T88 786T91 955Q98 1095 162 1154T368 1214Q505 1214 567 1155T635 961Q636 930 637 871T638 734T633 570H241Q241 490 242 406T245 229Q247 159 275 133T367
107Q429 107 455 133T484 229Q486 264 486 312T484 420H633Q636 379 636 331T635 243Q629 106 570 46T369 -14ZM241 686H486Q487 746 487 803T486 907T484 975Q481 1039 455 1066T368 1094Q303 1094 275 1067T245 975Q244 896 243 825T241 686ZM296 1280L154 1513H265L403
1280H296Z" />
<glyph unicode="&#xe9;" horiz-adv-x="715" d="M369 -14Q225 -14 161 46T91 243Q89 318 88 409T87 597T88 786T91 955Q98 1095 162 1154T368 1214Q505 1214 567 1155T635 961Q636 930 637 871T638 734T633 570H241Q241 490 242 406T245 229Q247 159 275 133T367
107Q429 107 455 133T484 229Q486 264 486 312T484 420H633Q636 379 636 331T635 243Q629 106 570 46T369 -14ZM241 686H486Q487 746 487 803T486 907T484 975Q481 1039 455 1066T368 1094Q303 1094 275 1067T245 975Q244 896 243 825T241 686ZM313 1280L460 1513H572L420
1280H313Z" />
<glyph unicode="&#xea;" horiz-adv-x="715" d="M369 -14Q225 -14 161 46T91 243Q89 318 88 409T87 597T88 786T91 955Q98 1095 162 1154T368 1214Q505 1214 567 1155T635 961Q636 930 637 871T638 734T633 570H241Q241 490 242 406T245 229Q247 159 275 133T367
107Q429 107 455 133T484 229Q486 264 486 312T484 420H633Q636 379 636 331T635 243Q629 106 570 46T369 -14ZM241 686H486Q487 746 487 803T486 907T484 975Q481 1039 455 1066T368 1094Q303 1094 275 1067T245 975Q244 896 243 825T241 686ZM181 1281L315 1514H413L547
1281H437L365 1418L291 1281H181Z" />
<glyph unicode="&#xeb;" horiz-adv-x="715" d="M369 -14Q225 -14 161 46T91 243Q89 318 88 409T87 597T88 786T91 955Q98 1095 162 1154T368 1214Q505 1214 567 1155T635 961Q636 930 637 871T638 734T633 570H241Q241 490 242 406T245 229Q247 159 275 133T367
107Q429 107 455 133T484 229Q486 264 486 312T484 420H633Q636 379 636 331T635 243Q629 106 570 46T369 -14ZM241 686H486Q487 746 487 803T486 907T484 975Q481 1039 455 1066T368 1094Q303 1094 275 1067T245 975Q244 896 243 825T241 686ZM405 1310V1431H525V1310H405ZM204
1310V1431H324V1310H204Z" />
<glyph unicode="&#xec;" horiz-adv-x="366" d="M106 0V1200H260V0H106ZM116 1280L-26 1513H85L223 1280H116Z" />
<glyph unicode="&#xed;" horiz-adv-x="366" d="M106 0V1200H260V0H106ZM133 1280L280 1513H392L240 1280H133Z" />
<glyph unicode="&#xee;" horiz-adv-x="366" d="M106 0V1200H260V0H106ZM256 1281L390 1514H488L622 1281H512L440 1418L366 1281H256Z" />
<glyph unicode="&#xef;" horiz-adv-x="366" d="M106 0V1200H260V0H106ZM480 1310V1431H600V1310H480ZM279 1310V1431H399V1310H279Z" />
<glyph unicode="&#xf0;" horiz-adv-x="763" d="M386 -15Q235 -15 169 50T95 265Q93 340 92 429T92 621T95 838Q97 961 153 1026T308 1091Q368 1091 412 1067T477 1005H494Q482 1077 460 1138T407 1251L259 1178L227 1240L365 1308Q331 1361 288 1403T194 1482L276
1613Q345 1563 402 1509T503 1386L627 1448L658 1386L542 1329Q602 1223 632 1087T667 773Q668 694 668 607T668 432T667 265Q664 165 635 104T545 14T386 -15ZM384 114Q447 114 479 145T513 241Q515 337 515 433T516 632T512 854Q511 906 470 934T369 962Q310
962 281 932T249 835Q247 725 246 621T246 422T249 241Q252 176 284 145T384 114Z" />
<glyph unicode="&#xf1;" horiz-adv-x="774" d="M106 0V1200H260V1090H292Q322 1150 363 1182T474 1215Q572 1215 622 1157T673 965V0H519V976Q519 1040 495 1068T417 1097Q366 1097 323 1066T260 979V0H106ZM517 1437H588Q586 1362 558 1324T477 1286Q442 1286
422 1297T388 1323T359 1349T318 1360Q296 1360 285 1342T269 1291H199Q206 1370 236 1408T320 1447Q356 1447 377 1436T412 1410T439 1384T476 1372Q497 1372 506 1389T517 1437Z" />
<glyph unicode="&#xf2;" horiz-adv-x="742" d="M372 -15Q272 -15 212 13T125 102T92 263Q90 338 89 423T87 598T88 774T92 937Q97 1037 124 1098T212 1187T372 1215Q473 1215 532 1187T618 1097T650 937Q652 862 653 776T655 602T654 427T650 263Q645 165 618
104T532 14T372 -15ZM372 107Q437 107 465 134T496 230Q499 332 500 422T502 600T501 778T496 970Q494 1039 467 1066T372 1094Q305 1094 277 1067T246 970Q243 869 242 779T240 600T241 422T246 230Q248 162 277 135T372 107ZM304 1280L162 1513H273L411 1280H304Z"
/>
<glyph unicode="&#xf3;" horiz-adv-x="742" d="M372 -15Q272 -15 212 13T125 102T92 263Q90 338 89 423T87 598T88 774T92 937Q97 1037 124 1098T212 1187T372 1215Q473 1215 532 1187T618 1097T650 937Q652 862 653 776T655 602T654 427T650 263Q645 165 618
104T532 14T372 -15ZM372 107Q437 107 465 134T496 230Q499 332 500 422T502 600T501 778T496 970Q494 1039 467 1066T372 1094Q305 1094 277 1067T246 970Q243 869 242 779T240 600T241 422T246 230Q248 162 277 135T372 107ZM321 1280L468 1513H580L428 1280H321Z"
/>
<glyph unicode="&#xf4;" horiz-adv-x="742" d="M372 -15Q272 -15 212 13T125 102T92 263Q90 338 89 423T87 598T88 774T92 937Q97 1037 124 1098T212 1187T372 1215Q473 1215 532 1187T618 1097T650 937Q652 862 653 776T655 602T654 427T650 263Q645 165 618
104T532 14T372 -15ZM372 107Q437 107 465 134T496 230Q499 332 500 422T502 600T501 778T496 970Q494 1039 467 1066T372 1094Q305 1094 277 1067T246 970Q243 869 242 779T240 600T241 422T246 230Q248 162 277 135T372 107ZM188 1281L322 1514H420L554 1281H444L372
1418L298 1281H188Z" />
<glyph unicode="&#xf5;" horiz-adv-x="742" d="M372 -15Q272 -15 212 13T125 102T92 263Q90 338 89 423T87 598T88 774T92 937Q97 1037 124 1098T212 1187T372 1215Q473 1215 532 1187T618 1097T650 937Q652 862 653 776T655 602T654 427T650 263Q645 165 618
104T532 14T372 -15ZM372 107Q437 107 465 134T496 230Q499 332 500 422T502 600T501 778T496 970Q494 1039 467 1066T372 1094Q305 1094 277 1067T246 970Q243 869 242 779T240 600T241 422T246 230Q248 162 277 135T372 107ZM497 1437H568Q566 1362 538 1324T457
1286Q422 1286 402 1297T368 1323T339 1349T298 1360Q276 1360 265 1342T249 1291H179Q186 1370 216 1408T300 1447Q336 1447 357 1436T392 1410T419 1384T456 1372Q477 1372 486 1389T497 1437Z" />
<glyph unicode="&#xf6;" horiz-adv-x="742" d="M372 -15Q272 -15 212 13T125 102T92 263Q90 338 89 423T87 598T88 774T92 937Q97 1037 124 1098T212 1187T372 1215Q473 1215 532 1187T618 1097T650 937Q652 862 653 776T655 602T654 427T650 263Q645 165 618
104T532 14T372 -15ZM372 107Q437 107 465 134T496 230Q499 332 500 422T502 600T501 778T496 970Q494 1039 467 1066T372 1094Q305 1094 277 1067T246 970Q243 869 242 779T240 600T241 422T246 230Q248 162 277 135T372 107ZM413 1310V1431H533V1310H413ZM212
1310V1431H332V1310H212Z" />
<glyph unicode="&#xf7;" horiz-adv-x="926" d="M103 708V828H823V708H103ZM388 937V1089H540V937H388ZM388 448V599H540V448H388Z" />
<glyph unicode="&#xf8;" horiz-adv-x="742" d="M133 357L581 920L629 840L191 292L133 357ZM372 -15Q272 -15 212 13T125 102T92 263Q90 338 89 423T87 598T88 774T92 937Q97 1037 124 1098T212 1187T372 1215Q473 1215 532 1187T618 1097T650 937Q652 862 653
776T655 602T654 427T650 263Q645 165 618 104T532 14T372 -15ZM372 107Q437 107 465 134T496 230Q499 332 500 422T502 600T501 778T496 970Q494 1039 467 1066T372 1094Q305 1094 277 1067T246 970Q243 869 242 779T240 600T241 422T246 230Q248 162 277 135T372
107Z" />
<glyph unicode="&#xf9;" horiz-adv-x="769" d="M301 -15Q203 -15 151 44T98 236V1200H252V225Q252 161 276 133T353 104Q404 104 447 135T510 221V1200H663V0H510V110H483Q452 47 407 16T301 -15ZM311 1280L169 1513H280L418 1280H311Z" />
<glyph unicode="&#xfa;" horiz-adv-x="769" d="M301 -15Q203 -15 151 44T98 236V1200H252V225Q252 161 276 133T353 104Q404 104 447 135T510 221V1200H663V0H510V110H483Q452 47 407 16T301 -15ZM328 1280L475 1513H587L435 1280H328Z" />
<glyph unicode="&#xfb;" horiz-adv-x="769" d="M301 -15Q203 -15 151 44T98 236V1200H252V225Q252 161 276 133T353 104Q404 104 447 135T510 221V1200H663V0H510V110H483Q452 47 407 16T301 -15ZM196 1281L330 1514H428L562 1281H452L380 1418L306 1281H196Z" />
<glyph unicode="&#xfc;" horiz-adv-x="769" d="M301 -15Q203 -15 151 44T98 236V1200H252V225Q252 161 276 133T353 104Q404 104 447 135T510 221V1200H663V0H510V110H483Q452 47 407 16T301 -15ZM420 1310V1431H540V1310H420ZM219 1310V1431H339V1310H219Z" />
<glyph unicode="&#xfd;" horiz-adv-x="677" d="M177 -408Q150 -408 113 -405T48 -397V-279Q72 -281 108 -283T175 -286Q249 -286 276 -259T312 -162L333 0H214L49 1200H206L263 621L321 120H376L429 621L485 1200H642L465 -151Q453 -243 423 -299T333 -382T177
-408ZM306 1280L453 1513H565L413 1280H306Z" />
<glyph unicode="&#xfe;" horiz-adv-x="774" d="M103 -400V1600H256V1090H284Q315 1153 354 1184T466 1215Q564 1215 613 1157T668 965Q670 899 671 807T672 612T671 411T668 236Q663 103 610 44T459 -15Q398 -15 358 14T284 110H256V-400H103ZM404 104Q457 104
485 132T514 225Q517 328 519 426T521 617T519 800T514 976Q513 1040 490 1068T413 1097Q359 1097 318 1069T256 979V221Q277 158 312 131T404 104Z" />
<glyph unicode="&#xff;" horiz-adv-x="677" d="M177 -408Q150 -408 113 -405T48 -397V-279Q72 -281 108 -283T175 -286Q249 -286 276 -259T312 -162L333 0H214L49 1200H206L263 621L321 120H376L429 621L485 1200H642L465 -151Q453 -243 423 -299T333 -382T177
-408ZM398 1310V1431H518V1310H398ZM197 1310V1431H317V1310H197Z" />
<glyph unicode="&#x2013;" horiz-adv-x="845" d="M60 691V829H785V691H60Z" />
<glyph unicode="&#x2014;" horiz-adv-x="1428" d="M60 691V829H1368V691H60Z" />
<glyph unicode="&#x2018;" horiz-adv-x="423" d="M91 1192V1368L196 1600H290L208 1386H331V1192H91Z" />
<glyph unicode="&#x2019;" horiz-adv-x="423" d="M132 1192L214 1406H91V1600H331V1425L227 1192H132Z" />
<glyph unicode="&#x201a;" horiz-adv-x="400" d="M132 -214L214 0H91V194H331V19L227 -214H132Z" />
<glyph unicode="&#x201c;" horiz-adv-x="691" d="M380 1192V1368L484 1600H579L496 1386H619V1192H380ZM71 1192V1368L176 1600H270L188 1386H311V1192H71Z" />
<glyph unicode="&#x201d;" horiz-adv-x="691" d="M112 1192L194 1406H71V1600H311V1425L207 1192H112ZM420 1192L503 1406H380V1600H619V1425L515 1192H420Z" />
<glyph unicode="&#x201e;" horiz-adv-x="782" d="M132 -214L214 0H91V194H331V19L227 -214H132ZM492 -214L574 0H451V194H691V19L587 -214H492Z" />
<glyph unicode="&#x2022;" horiz-adv-x="484" d="M91 660V961H393V660H91Z" />
<glyph unicode="&#x2039;" horiz-adv-x="413" d="M322 846L60 544V701L322 1004V846ZM322 242L60 544V701L322 399V242Z" />
<glyph unicode="&#x203a;" horiz-adv-x="413" d="M91 846V1004L353 701V544L91 846ZM91 242V399L353 701V544L91 242Z" />
</font>
</defs>
</svg>
